<svg width="64" height="67" viewBox="0 0 64 67" fill="none" xmlns="http://www.w3.org/2000/svg">
<g id="svg2" clip-path="url(#clip0_320_533)">
<g id="g8">
<g id="g10">
<path id="path12" d="M62.2471 41.9033L63.98 40.8422L64.0004 1.85279L62.314 0.198395L62.2883 16.2095L62.2471 41.9033Z" fill="#F44920"/>
<path id="path14" d="M52.9205 15.5255C52.901 15.5448 52.8816 15.564 52.8605 15.5844C52.8466 15.5978 52.8315 15.6121 52.8171 15.6259C52.7985 15.6438 52.7804 15.6614 52.7607 15.68C52.7447 15.6951 52.7275 15.7111 52.7109 15.7267C52.691 15.7453 52.6716 15.7637 52.6509 15.783C52.6326 15.7998 52.6135 15.8172 52.5947 15.8345C52.5739 15.8537 52.553 15.8728 52.531 15.8927C52.5107 15.911 52.4897 15.9299 52.4688 15.9488C52.4466 15.9685 52.4246 15.9883 52.4014 16.0088C52.3792 16.0284 52.3559 16.0488 52.3329 16.0691C52.3094 16.0896 52.2861 16.1098 52.2618 16.1309C52.2373 16.1521 52.2118 16.1738 52.1865 16.1956C52.1621 16.2164 52.1376 16.2373 52.1123 16.2586C52.0859 16.2809 52.059 16.3035 52.0316 16.3263C52.0054 16.3481 51.9792 16.3699 51.9523 16.3921C51.9239 16.4153 51.895 16.4389 51.8658 16.4627C51.8382 16.4851 51.8102 16.5078 51.7818 16.5306C51.7519 16.5545 51.7217 16.5787 51.6911 16.603C51.6615 16.6264 51.6315 16.6501 51.601 16.6738C51.5695 16.6986 51.5377 16.7233 51.5051 16.7484C51.4741 16.7723 51.4427 16.7963 51.4108 16.8207C51.3773 16.8462 51.3437 16.8717 51.3093 16.8975C51.2767 16.9222 51.2432 16.947 51.2098 16.9717C51.1745 16.9978 51.1391 17.024 51.1031 17.0503C51.069 17.0751 51.0344 17.1003 50.9996 17.1253C50.9619 17.1525 50.9248 17.1793 50.8862 17.2066C50.851 17.2318 50.8146 17.2571 50.7784 17.2824C50.7392 17.3101 50.7001 17.3375 50.66 17.3652C50.6226 17.391 50.5843 17.4168 50.5461 17.4428C50.5053 17.4706 50.465 17.4982 50.4232 17.526C50.3841 17.5524 50.3436 17.5789 50.3036 17.6053C50.2611 17.6333 50.2193 17.6613 50.1759 17.6894C50.1349 17.716 50.0925 17.7429 50.0506 17.7695C50.0067 17.7976 49.9633 17.8258 49.9186 17.8541C49.8752 17.8812 49.8305 17.9087 49.7865 17.936C49.7411 17.9641 49.6966 17.9921 49.6504 18.0202C49.5613 18.0745 49.4708 18.1289 49.3783 18.1834C49.3354 18.2087 49.2905 18.2342 49.2468 18.2596C49.1944 18.29 49.143 18.3203 49.0898 18.3505C49.0422 18.3777 48.9932 18.4047 48.9448 18.4318C48.8937 18.4604 48.843 18.4892 48.7911 18.5177C48.7407 18.5453 48.6891 18.5729 48.6381 18.6004C48.586 18.6287 48.5343 18.6568 48.4813 18.6848C48.4297 18.7123 48.3767 18.7396 48.324 18.7669C48.2697 18.7952 48.2157 18.8233 48.1605 18.8516C48.1077 18.8786 48.0535 18.9054 47.9997 18.9324C47.9432 18.9607 47.8869 18.989 47.8293 19.0171C47.775 19.0437 47.7195 19.0704 47.6642 19.0969C47.6058 19.125 47.5474 19.1531 47.4879 19.1811C47.4314 19.2076 47.374 19.2341 47.3166 19.2604C47.2567 19.288 47.1968 19.3155 47.1361 19.343C47.0779 19.3693 47.0188 19.3953 46.9597 19.4214C46.8979 19.4487 46.8357 19.4759 46.7728 19.503C46.7129 19.5289 46.6524 19.5545 46.5915 19.5802C46.5281 19.6068 46.4643 19.6336 46.3998 19.6601C46.338 19.6855 46.2758 19.7108 46.2132 19.736C46.1474 19.7623 46.0814 19.7884 46.0149 19.8146C45.9518 19.8393 45.8885 19.8638 45.8246 19.8883C45.7942 19.8998 45.765 19.9117 45.7345 19.9232L48.5718 20.2757C48.9196 20.1364 51.5545 19.065 53.038 18.0054L53.03 15.4166C53.0051 15.442 52.9781 15.4688 52.9498 15.4969C52.9405 15.5061 52.9302 15.5162 52.9205 15.5255Z" fill="#F44920"/>
<path id="path16" d="M45.1976 11.4911V19.7687C45.2471 19.7511 45.2968 19.7335 45.3456 19.7157C45.4269 19.6861 45.5076 19.6565 45.5872 19.6265C45.669 19.5958 45.7496 19.5647 45.8298 19.5336C45.9111 19.502 45.9922 19.4703 46.0723 19.4382C46.147 19.4082 46.2206 19.3781 46.294 19.3479C46.3774 19.3135 46.4604 19.2789 46.5421 19.2442C46.609 19.2158 46.6746 19.1873 46.7404 19.1587C46.826 19.1214 46.9113 19.0838 46.9952 19.0462C47.0538 19.0197 47.1115 18.9932 47.1693 18.9666C47.2579 18.9258 47.3461 18.885 47.4328 18.8438C47.482 18.8205 47.5305 18.797 47.5793 18.7734C47.6718 18.7287 47.764 18.6838 47.854 18.6387C47.8937 18.619 47.9323 18.5991 47.9715 18.5792C48.0686 18.53 48.1651 18.4806 48.2594 18.4309C48.2885 18.4158 48.3169 18.4003 48.3457 18.3852C48.4479 18.3309 48.549 18.2766 48.6479 18.2222C48.6665 18.212 48.6848 18.2016 48.7034 18.1914C48.8104 18.132 48.916 18.0727 49.0191 18.0133C49.0279 18.0083 49.0364 18.0032 49.045 17.9983C51.7425 16.4401 53.0497 14.92 53.0676 14.8986L53.3536 14.5594L53.365 18.1733L53.3649 18.1735L53.4362 41.3313L61.9207 42.0179L61.9621 16.1955L61.9881 -0.00018692L54.9074 1.05164C53.6819 7.26636 46.1441 11.04 45.1976 11.4911Z" fill="#F44920"/>
<path id="path18" d="M28.8081 28.1667L32.7052 42.5287L36.3935 42.4655L30.6567 21.4035L28.8081 28.1667Z" fill="#F44920"/>
<path id="path20" d="M32.4573 42.862L24.4154 42.9997L28.4698 28.1662L28.4701 28.1647L30.6573 20.1632L36.8198 42.7873L32.4573 42.862ZM52.0512 61.3013L36.6338 8.98739L24.3562 6.78175L18.3647 24.5848L4.09045 67L18.3131 65.3259L21.7321 52.8173L35.2077 52.0173L39.2681 51.7763L39.303 51.9048L42.1237 62.2599L52.0512 61.3013Z" fill="#F44920"/>
<path id="path22" d="M19.2161 9.3947L0 64.7445L3.76262 66.9503L18.2222 23.9841L23.9623 6.92783L19.2161 9.3947Z" fill="#F44920"/>
<path id="path24" d="M35.6302 52.3218L38.2687 61.8934L41.7824 62.249L39.0234 52.1205L35.6302 52.3218Z" fill="#F44920"/>
</g>
</g>
</g>
<defs>
<clipPath id="clip0_320_533">
<rect width="64" height="67" fill="white"/>
</clipPath>
</defs>
</svg>
