<svg width="199" height="64" viewBox="0 0 199 64" fill="none" xmlns="http://www.w3.org/2000/svg">
<g id="Frame" clip-path="url(#clip0_320_513)">
<path id="Vector" d="M82.4842 35.6063V46.57C82.4842 46.8585 82.484 47.0028 82.3398 47.147C82.1956 47.2913 82.0516 47.4355 81.7632 47.4355H74.8414C74.553 47.4355 74.4087 47.2913 74.2645 47.147C74.1203 47.0028 73.9761 46.7142 73.9761 46.57V17.4296C73.9761 17.1411 74.1203 16.9968 74.2645 16.8525C74.4087 16.7083 74.553 16.564 74.8414 16.564H83.4936C83.782 16.564 83.9261 16.7083 84.0703 16.8525C84.2145 16.9968 84.3587 17.2853 84.3587 17.4296V23.0557C84.3587 23.3442 84.2145 23.4885 84.0703 23.6327C83.9261 23.777 83.782 23.9213 83.4936 23.9213H82.4842V28.3933H83.4936C84.0704 28.3933 84.3587 28.6818 84.3587 29.2589V34.885C84.3587 35.462 84.0704 35.7505 83.4936 35.7505L82.4842 35.6063Z" fill="#F44920"/>
<path id="Vector_2" d="M86.2335 35.6063C85.9451 35.6063 85.8009 35.462 85.6567 35.3177C85.5125 35.1735 85.3683 35.0292 85.3683 34.7407V29.1146C85.3683 28.8261 85.5125 28.6818 85.6567 28.5375C85.8009 28.3933 85.9451 28.249 86.2335 28.249H95.0299C95.6067 28.249 95.8951 28.5375 95.8951 29.1146V34.7407C95.8951 35.3177 95.6067 35.6063 95.0299 35.6063H86.2335Z" fill="#F44920"/>
<path id="Vector_3" d="M100.077 24.0655C99.9326 24.0655 99.6442 23.9213 99.6442 23.777C99.5 23.6327 99.5 23.4885 99.5 23.2V17.4296C99.5 16.8525 99.7884 16.564 100.221 16.564H106.278C106.422 16.564 106.71 16.7083 106.854 16.8525C106.999 16.9968 107.143 17.2853 107.143 17.4296V23.2C107.143 23.4885 106.999 23.6327 106.999 23.777C106.854 23.9213 106.71 24.0655 106.422 24.0655H100.077ZM100.077 47.4355C99.9326 47.4355 99.6442 47.2913 99.5 47.147C99.3558 47.0028 99.3558 46.8585 99.3558 46.57V25.9409C99.3558 25.6524 99.3558 25.5081 99.5 25.3638C99.6442 25.2196 99.7884 25.0753 99.9326 25.0753H105.989C106.133 25.0753 106.422 25.2196 106.566 25.3638C106.71 25.5081 106.854 25.6524 106.854 25.9409V46.57C106.854 46.8585 106.71 47.0028 106.71 47.147C106.566 47.2913 106.422 47.4355 106.133 47.4355H100.077Z" fill="#F44920"/>
<path id="Vector_4" d="M132.234 47.4355C132.09 47.4355 131.946 47.4355 131.801 47.2912C131.657 47.147 131.513 47.147 131.513 47.0027C130.648 45.5601 129.638 44.1175 128.485 42.3864C127.331 40.6553 126.178 38.9242 124.88 36.9046L118.246 47.0027C118.246 47.0027 118.102 47.147 117.958 47.147C117.814 47.2912 117.67 47.2912 117.525 47.2912H109.594C109.306 47.2912 109.017 47.147 108.873 46.8585C108.729 46.57 108.729 46.2814 109.017 45.9929L119.4 30.9899C119.4 30.8457 119.544 30.8457 119.688 30.7014C119.833 30.7014 119.977 30.5572 119.977 30.5572H129.783C130.071 30.5572 130.215 30.7014 130.359 30.8457L140.598 45.9929C140.742 46.2814 140.886 46.57 140.742 46.8585C140.598 47.147 140.309 47.2912 140.021 47.2912L132.234 47.4355ZM131.369 29.2588C131.369 29.2588 131.225 29.4031 131.08 29.4031C130.936 29.5473 130.792 29.5473 130.792 29.5473H119.256C119.112 29.5473 119.112 29.5473 118.967 29.4031C118.823 29.4031 118.679 29.2588 118.679 29.2588L110.892 18.0066C110.748 17.7181 110.604 17.4296 110.748 17.141C110.892 16.8525 111.18 16.7083 111.469 16.7083H119.544C119.688 16.7083 119.833 16.7083 119.977 16.8525C120.121 16.9968 120.265 16.9968 120.265 16.9968L125.024 24.6425L130.071 16.8525C130.071 16.8525 130.215 16.7083 130.359 16.564C130.504 16.4197 130.648 16.4197 130.792 16.4197H138.867C139.3 16.4197 139.444 16.564 139.588 16.8525C139.733 17.141 139.733 17.4296 139.444 17.7181L131.369 29.2588Z" fill="#F44920"/>
<path id="Vector_5" d="M168.429 40.2225C168.429 43.1077 166.122 45.5601 163.093 45.5601C160.209 45.5601 157.758 43.252 157.758 40.2225C157.758 37.3374 160.065 34.8849 163.093 34.8849C166.122 34.8849 168.429 37.1931 168.429 40.2225Z" fill="#F44920"/>
<path id="Vector_6" d="M182.993 40.2225C182.993 43.1077 180.686 45.5601 177.658 45.5601C174.774 45.5601 172.322 43.252 172.322 40.2225C172.322 37.3374 174.63 34.8849 177.658 34.8849C180.686 34.8849 182.993 37.1931 182.993 40.2225Z" fill="#F44920"/>
<path id="Vector_7" d="M197.702 40.2225C197.702 43.1077 195.395 45.5601 192.367 45.5601C189.483 45.5601 187.031 43.252 187.031 40.2225C187.031 37.3374 189.338 34.8849 192.367 34.8849C195.251 34.8849 197.702 37.1931 197.702 40.2225Z" fill="#F44920"/>
<path id="Vector_8" d="M165.545 20.7475C164.247 19.4492 162.661 18.7279 160.786 18.7279C159.056 18.7279 157.47 19.3049 156.172 20.6033C154.874 21.9016 154.297 23.3442 154.297 25.0753V33.1538H156.316V25.2196C156.316 24.0655 156.749 23.0557 157.614 22.1901C158.479 21.3246 159.488 20.8918 160.786 20.8918C162.084 20.8918 163.238 21.3246 164.103 22.3344L164.247 22.4786L165.689 21.0361L165.545 20.7475Z" fill="#F44920"/>
<path id="Vector_9" d="M167.564 19.1607V33.2981H169.583V19.1607H167.564Z" fill="#F44920"/>
<path id="Vector_10" d="M183.138 20.7475C181.84 19.4492 180.254 18.7279 178.379 18.7279C176.649 18.7279 175.062 19.3049 173.764 20.6033C172.467 21.9016 171.89 23.3442 171.89 25.0753V26.9507C171.89 28.6818 172.467 30.1244 173.764 31.4227C175.062 32.5768 176.649 33.1538 178.379 33.1538C180.254 33.1538 181.84 32.5768 183.138 31.2785L183.282 31.1342L181.84 29.6916L181.696 29.8359C180.83 30.8457 179.677 31.2785 178.379 31.2785C177.225 31.2785 176.072 30.8457 175.207 29.9801C174.341 29.1146 173.909 28.1048 173.909 26.9507V25.0753C173.909 23.9212 174.341 22.9114 175.207 22.0459C176.072 21.1803 177.225 20.7475 178.379 20.7475C179.677 20.7475 180.83 21.1803 181.696 22.1901L181.84 22.3344L183.282 20.8918L183.138 20.7475Z" fill="#F44920"/>
<path id="Vector_11" d="M150.692 20.7475C149.394 19.4492 147.952 18.8721 146.078 18.8721C144.347 18.8721 142.761 19.4492 141.463 20.7475C140.165 22.0458 139.588 23.4884 139.588 25.2195V25.5081V37.1931V37.4816H141.607C141.607 37.4816 141.607 32.5768 141.607 31.567C142.04 31.9997 142.617 32.4325 143.338 32.721C144.203 33.1538 145.068 33.2981 146.078 33.2981C147.808 33.2981 149.394 32.721 150.692 31.567C151.99 30.2686 152.567 28.826 152.567 27.0949V25.2195C152.567 23.4884 151.99 21.9016 150.692 20.7475ZM149.25 30.1244C148.385 30.9899 147.375 31.4227 146.078 31.4227C144.924 31.4227 143.77 30.9899 142.905 30.1244C142.04 29.2588 141.607 28.249 141.607 27.0949V25.2195C141.607 24.0655 142.04 23.0557 142.905 22.1901C143.77 21.3245 144.78 20.8918 146.078 20.8918C147.375 20.8918 148.385 21.3245 149.25 22.1901C150.115 23.0557 150.548 24.0655 150.548 25.2195V27.0949C150.548 28.249 150.259 29.2588 149.25 30.1244Z" fill="#F44920"/>
<path id="Vector_12" d="M194.386 29.9801C193.52 30.8457 192.367 31.4227 191.069 31.4227C189.915 31.4227 188.762 30.99 187.896 30.1244C187.031 29.2588 186.599 28.249 186.599 27.095C187.175 27.095 197.558 27.095 197.558 27.095V25.0753C197.558 23.3442 196.981 21.7574 195.683 20.6033C194.386 19.4492 192.943 18.7279 191.069 18.7279C189.338 18.7279 187.752 19.3049 186.454 20.6033C185.157 21.7574 184.58 23.3442 184.58 25.0753V26.9507C184.58 28.6818 185.157 30.1244 186.454 31.4227C187.752 32.5768 189.338 33.1538 191.069 33.1538C192.943 33.1538 194.53 32.5768 195.828 31.2785L195.972 31.1342L194.53 29.6916L194.386 29.9801ZM187.896 22.0459C188.762 21.1803 189.915 20.7475 191.069 20.7475C192.367 20.7475 193.376 21.1803 194.241 22.0459C195.107 22.9114 195.539 23.9212 195.539 25.0753C194.962 25.0753 187.175 25.0753 186.599 25.0753C186.599 23.9212 187.031 22.9114 187.896 22.0459Z" fill="#F44920"/>
<path id="Vector_13" d="M96.9044 21.3246V17.5738C96.9044 17.2853 96.7602 17.141 96.616 16.9968C96.4718 16.8525 96.3275 16.7083 96.0391 16.7083H94.7413H93.4436H86.2333C85.9449 16.7083 85.8009 16.8525 85.6567 16.9968C85.5125 17.141 85.5123 17.2853 85.5123 17.4295V17.5738V19.3049V23.0557C85.5123 23.3442 85.6565 23.4884 85.8007 23.6327C85.9449 23.777 86.0893 23.9212 86.3777 23.9212H87.6754H88.9733H96.1833C96.4717 23.9212 96.616 23.777 96.7602 23.6327C96.9044 23.4884 96.9044 23.3442 96.9044 23.1999V23.0557V21.3246Z" fill="#F44920"/>
<path id="Vector_14" d="M63.4493 31.9998C63.4493 49.5994 49.3174 63.7368 31.7246 63.7368C14.1319 63.7368 0 49.5994 0 31.9998C0 14.5444 14.1319 0.262695 31.7246 0.262695C49.3174 0.262695 63.4493 14.5444 63.4493 31.9998Z" fill="#F44920"/>
<path id="Vector_15" d="M60.9977 31.9997C60.9977 48.1568 47.8753 61.2844 31.7246 61.2844C15.5739 61.2844 2.45135 48.1568 2.45135 31.9997C2.45135 15.8427 15.5739 2.71509 31.7246 2.71509C47.8753 2.71509 60.9977 15.8427 60.9977 31.9997Z" fill="#F44920"/>
<path id="Vector_16" d="M31.7246 55.2255C44.5469 55.2255 54.9413 44.827 54.9413 31.9998C54.9413 19.1725 44.5469 8.77399 31.7246 8.77399C18.9024 8.77399 8.508 19.1725 8.508 31.9998C8.508 44.827 18.9024 55.2255 31.7246 55.2255Z" fill="white"/>
<path id="Vector_17" d="M28.8406 35.6063V46.57C28.8406 46.8585 28.8406 47.0028 28.6963 47.147C28.5521 47.2913 28.4079 47.4355 28.1195 47.4355H21.1978C20.9094 47.4355 20.7652 47.2913 20.621 47.147C20.4768 47.0028 20.3326 46.7142 20.3326 46.57V17.4296C20.3326 17.1411 20.4768 16.9968 20.621 16.8525C20.7652 16.7083 20.9094 16.564 21.1978 16.564H29.85C30.1384 16.564 30.2826 16.7083 30.4268 16.8525C30.571 16.9968 30.7152 17.2853 30.7152 17.4296V23.0557C30.7152 23.3442 30.571 23.4885 30.4268 23.6327C30.2826 23.777 30.1384 23.9213 29.85 23.9213H28.8406V28.3933H29.85C30.4268 28.3933 30.7152 28.6818 30.7152 29.2589V34.885C30.7152 35.462 30.4268 35.7505 29.85 35.7505L28.8406 35.6063Z" fill="#F44920"/>
<path id="Vector_18" d="M32.4456 35.6063C32.1572 35.6063 32.013 35.462 31.8688 35.3177C31.7246 35.3177 31.7246 35.0292 31.7246 34.885V29.1146C31.7246 28.8261 31.8688 28.6818 32.013 28.5375C32.1572 28.3933 32.3014 28.249 32.5898 28.249H41.3862C41.963 28.249 42.2514 28.5375 42.2514 29.1146V34.7407C42.2514 35.3177 41.963 35.6063 41.3862 35.6063H32.4456Z" fill="#F44920"/>
<path id="Vector_19" d="M43.1166 21.3246V17.5738C43.1166 17.2853 42.9724 17.141 42.8282 16.9968C42.684 16.8525 42.5398 16.7083 42.2514 16.7083H40.9536H39.6558H32.4456C32.1572 16.7083 32.013 16.8525 31.8688 16.9968C31.7246 17.141 31.7246 17.2853 31.7246 17.4295V17.5738V19.3049V23.0557C31.7246 23.3442 31.8688 23.4884 32.013 23.6327C32.1572 23.777 32.3014 23.9212 32.5898 23.9212H33.8877H35.1855H42.3956C42.684 23.9212 42.8282 23.777 42.9724 23.6327C43.1166 23.4884 43.1166 23.3442 43.1166 23.1999V23.0557V21.3246Z" fill="#F44920"/>
</g>
<defs>
<clipPath id="clip0_320_513">
<rect width="199" height="63.4741" fill="white" transform="translate(0 0.262695)"/>
</clipPath>
</defs>
</svg>
