<svg width="184" height="69" viewBox="0 0 184 69" fill="none" xmlns="http://www.w3.org/2000/svg">
<g id="Layer_1" clip-path="url(#clip0_320_449)">
<g id="Group">
<path id="IOM_logo_EN" d="M28.3667 23.126C28.6734 23.126 28.9801 22.8217 28.9801 22.5174C28.9801 22.2132 28.6734 21.9089 28.3667 21.9089C28.0601 21.9089 27.7534 22.2132 27.7534 22.5174C27.6001 22.8217 27.9067 23.126 28.3667 23.126ZM32.6601 18.7138C33.1201 18.7138 33.5801 18.2574 33.5801 17.801C33.5801 17.3445 33.1201 16.8881 32.6601 16.8881C32.2001 16.8881 31.7401 17.3445 31.7401 17.801C31.7401 18.2574 32.0467 18.7138 32.6601 18.7138ZM75.7467 0.9129H69.3067V44.8827H75.7467V0.9129ZM11.9601 61.6186C11.9601 62.9879 11.8067 63.9008 11.5001 64.3572C11.0401 65.118 9.96672 66.3351 7.66672 66.3351C5.98006 66.3351 4.90672 65.7265 4.29339 65.118C3.52672 64.3572 3.37339 63.5965 3.37339 61.6186V53.2507H1.22672V61.6186C1.22672 62.6837 1.22672 64.3572 1.99339 65.5744C3.22006 67.4001 5.52006 68.1609 7.66672 68.1609C9.35339 68.1609 11.0401 67.7044 12.4201 66.6394C14.1067 65.118 14.1067 63.1401 14.1067 61.6186V53.2507H11.9601V61.6186ZM123.893 55.0764H129.107V67.8566H131.253V55.0764H136.467V53.2507H123.893V55.0764ZM114.54 53.0985L108.1 67.8566H110.247L112.087 63.5965H118.527L120.52 67.8566H122.667L115.92 53.0985H114.54ZM113.007 61.6186L115.307 56.2936L117.76 61.6186H113.007ZM141.22 67.8566H143.367V53.2507H141.22V67.8566ZM155.94 53.0985C150.727 53.0985 147.813 56.75 147.813 60.7058C147.813 64.8137 151.033 68.1609 155.787 68.1609C160.693 68.1609 164.067 64.8137 164.067 60.5536C164.067 56.5979 161 53.0985 155.94 53.0985ZM160.387 64.3572C159.313 65.4223 157.627 66.0308 155.94 66.0308C152.72 66.0308 150.113 63.9008 150.113 60.5536C150.113 58.1193 151.8 54.9243 156.093 54.9243C160.08 54.9243 161.92 57.9672 161.92 60.4015C161.92 61.7708 161.307 63.4444 160.387 64.3572ZM180.167 53.2507V64.6615L170.047 53.2507H168.36V67.8566H170.353V56.5979L180.473 67.8566H182.313V53.2507H180.167ZM132.173 22.8217C132.173 10.9545 122.973 0.304321 108.253 0.304321C93.0734 0.304321 84.4867 11.4109 84.4867 22.9739C84.4867 35.2976 93.9934 45.4913 107.947 45.4913C122.36 45.4913 132.173 35.4497 132.173 22.8217ZM108.253 39.5577C98.9001 39.5577 91.0801 33.0154 91.0801 22.9739C91.0801 15.6709 96.1401 6.23796 108.56 6.23796C120.213 6.23796 125.733 15.5188 125.733 22.8217C125.733 26.6254 124.047 31.3418 121.287 34.3847C118.22 37.5798 113.007 39.5577 108.253 39.5577ZM162.073 27.6904L175.72 10.6502V44.8827H182.16V0.9129H176.18L161.46 19.0181L146.587 0.9129H140.607V44.8827H147.047V10.6502L160.847 27.6904H162.073ZM100.28 60.8579C101.967 60.2493 102.733 58.88 102.733 57.2064C102.733 55.685 101.967 54.3157 100.433 53.555C99.5134 53.2507 98.5934 53.2507 97.8267 53.2507H93.9934V67.8566H96.1401V61.4665H96.7534C97.8267 61.4665 98.5934 61.4665 99.9734 63.2922C100.433 63.9008 102.58 67.0958 103.04 67.8566H105.8C104.727 66.4873 104.42 65.8787 103.807 64.9658C102.58 63.1401 101.66 61.7708 100.28 60.8579ZM99.2067 59.4886C98.5934 59.6408 97.3667 59.6408 97.0601 59.6408H96.2934V55.0764H96.9067C98.2867 55.0764 98.9001 55.2286 99.5134 55.3807C100.28 55.685 100.587 56.4457 100.587 57.3586C100.587 58.1193 100.28 59.0322 99.2067 59.4886ZM55.5067 21.6046C55.5067 14.6059 52.2867 6.84654 47.0734 0.9129H42.3201C43.5467 1.97791 45.2334 3.95579 45.2334 3.95579C49.6801 8.97657 52.4401 15.6709 52.4401 21.7567V21.9089H44.9267C43.7001 10.1937 34.3467 0.9129 22.8467 0.9129C10.5801 0.9129 0.766724 11.4109 0.766724 24.191C0.766724 31.1897 3.98672 38.9491 9.20006 44.8827H13.9534C12.7267 43.8177 11.0401 41.8398 11.0401 41.8398C6.59339 36.819 3.83339 30.1247 3.83339 24.0389V23.8868H11.3467C12.4201 35.6019 21.9267 44.8827 33.4267 44.8827C45.5401 44.8827 55.5067 34.3847 55.5067 21.6046ZM33.8867 41.8398V36.3626C37.1067 36.5148 39.8667 37.7319 42.0134 39.7098C39.4067 40.927 36.6467 41.6877 33.8867 41.8398ZM33.8867 35.1455V31.6461H44.3134C42.7801 33.624 40.7867 35.1455 38.7934 36.0583C37.1067 35.6019 35.5734 35.2976 33.8867 35.1455ZM42.9334 39.1012C42.0134 38.1884 41.0934 37.5798 40.0201 36.9712C42.1667 35.754 44.1601 33.9283 45.6934 31.7983H49.8334C48.1467 34.689 45.8467 37.2755 42.9334 39.1012ZM52.2867 23.2782C52.1334 25.8646 51.5201 28.1468 50.6001 30.429H46.6134C47.6867 28.4511 48.3001 26.3211 48.3001 24.0389C48.3001 23.8868 48.3001 23.5825 48.3001 23.4303H52.2867V23.2782ZM41.7067 21.9089H37.8734C37.8734 21.9089 37.8734 21.9089 37.8734 21.7567C37.8734 19.4746 37.2601 17.3445 36.1867 15.3666H40.0201C40.9401 17.4967 41.5534 19.6267 41.7067 21.9089ZM39.4067 14.1495H35.4201C33.8867 12.0195 31.8934 10.1937 29.7467 8.97657C30.8201 8.36799 31.7401 7.75941 32.5067 6.84654C35.4201 8.67228 37.7201 11.1066 39.4067 14.1495ZM23.7667 3.95579C26.5267 4.10794 29.1334 4.86866 31.5867 6.08582C29.5934 7.91156 26.8334 9.12871 23.7667 9.433V3.95579ZM23.7667 10.6502C25.4534 10.498 26.9867 10.1937 28.3667 9.58515C30.5134 10.498 32.5067 12.0195 33.8867 13.9973H23.7667V10.6502ZM22.3867 3.95579V9.433C19.1667 9.433 16.4067 8.0637 14.2601 6.08582C16.7134 4.86866 19.4734 4.10794 22.3867 3.95579ZM22.3867 10.6502V14.1495H11.9601C13.4934 12.1716 15.4867 10.6502 17.4801 9.73729C19.0134 10.1937 20.7001 10.6502 22.3867 10.6502ZM13.1867 6.6944C14.1067 7.60727 15.0267 8.21585 16.1001 8.82443C13.9534 10.0416 11.9601 11.8673 10.4267 13.9973H6.28672C7.97339 11.1066 10.4267 8.52014 13.1867 6.6944ZM3.83339 22.5174C3.98672 20.0831 4.60006 17.6488 5.67339 15.5188H9.66006C8.58672 17.4967 7.97339 19.6267 7.97339 21.9089C7.97339 22.061 7.97339 22.3653 7.97339 22.5174H3.83339ZM9.20006 22.5174C9.20006 22.3653 9.20006 22.061 9.20006 21.9089C9.20006 19.6267 9.96672 17.3445 11.0401 15.5188H34.8067C36.0334 17.4967 36.6467 19.6267 36.6467 21.9089C36.6467 21.9089 36.6467 21.9089 36.6467 22.061V23.4303H46.9201C46.9201 23.5825 46.9201 23.8868 46.9201 24.0389C46.9201 26.3211 46.1534 28.6032 45.0801 30.429H21.3134C20.2401 28.4511 19.4734 26.3211 19.4734 24.0389V23.8868V22.5174H9.20006ZM14.4134 23.8868H18.2467C18.2467 23.8868 18.2467 23.8868 18.2467 24.0389C18.2467 26.3211 18.8601 28.4511 19.9334 30.429H16.1001C15.1801 28.2989 14.5667 26.1689 14.4134 23.8868ZM16.8667 31.7983H20.8534C22.3867 33.9283 24.3801 35.754 26.5267 36.9712C25.4534 37.5798 24.5334 38.1884 23.7667 39.1012C20.7001 37.2755 18.4001 34.689 16.8667 31.7983ZM32.3534 41.8398C29.5934 41.6877 26.9867 40.927 24.5334 39.7098C26.5267 37.8841 29.2867 36.6669 32.3534 36.3626V41.8398ZM32.3534 35.1455C30.6667 35.2976 29.1334 35.6019 27.7534 36.2105C25.6067 35.2976 23.6134 33.7762 22.2334 31.7983H32.3534V35.1455ZM20.7001 24.191C20.8534 24.191 21.0067 24.0389 21.0067 23.8868L22.5401 20.0831L22.6934 23.7346L22.0801 28.4511C22.0801 28.6032 22.0801 28.7554 22.3867 28.9075H22.5401C22.6934 28.9075 22.8467 28.7554 23.0001 28.6032L23.6134 24.191H24.3801L24.9934 28.6032C24.9934 28.7554 25.1467 28.9075 25.4534 28.9075H25.6067C25.7601 28.9075 25.9134 28.6032 25.9134 28.4511L25.3001 23.7346L25.4534 20.0831L26.9867 23.8868H27.6001L27.1401 26.4732C27.1401 26.6254 27.1401 26.7775 27.2934 26.9296C27.2934 27.0818 27.4467 27.0818 27.6001 27.0818V28.1468C27.6001 28.2989 27.7534 28.4511 27.9067 28.4511C28.0601 28.4511 28.2134 28.2989 28.2134 28.1468V27.0818H28.3667H28.5201V28.1468C28.5201 28.2989 28.6734 28.4511 28.8267 28.4511C28.9801 28.4511 29.1334 28.2989 29.1334 28.1468V27.0818C29.2867 27.0818 29.2867 26.9296 29.4401 26.9296C29.5934 26.7775 29.5934 26.6254 29.5934 26.4732L29.1334 24.191H29.4401L31.1267 20.2353L31.4334 21.7567C31.4334 22.061 31.4334 22.2132 31.4334 22.5174L29.9001 29.0597H34.6534L33.1201 22.5174C33.1201 22.2132 33.1201 22.061 33.1201 21.7567L33.4267 20.0831L34.6534 23.2782C34.6534 23.4303 34.8067 23.5825 34.9601 23.5825H35.1134C35.2667 23.4303 35.4201 23.2782 35.2667 23.126L33.8867 19.6267C33.8867 19.4746 33.7334 19.3224 33.5801 19.3224H30.8201C30.6667 19.3224 30.5134 19.4746 30.5134 19.6267L29.1334 23.4303H27.4467L25.7601 19.3224C25.7601 19.1703 25.6067 19.0181 25.4534 19.0181H22.6934C22.5401 19.0181 22.3867 19.1703 22.3867 19.3224L20.5467 23.5825C20.5467 23.7346 20.5467 24.0389 20.7001 24.0389C20.7001 24.191 20.7001 24.191 20.7001 24.191ZM31.7401 64.6615L21.6201 53.2507H19.9334V67.8566H21.9267V56.5979L32.0467 67.8566H33.8867V53.2507H31.8934V64.6615H31.7401ZM67.6201 67.8566H69.7667V53.2507H67.6201V67.8566ZM83.2601 62.5315H86.1734V65.5744C84.7934 66.0308 84.0267 66.183 82.9534 66.183C79.2734 66.183 76.8201 63.7487 76.8201 60.5536C76.8201 57.0543 79.7334 54.9243 82.6467 54.9243C83.4134 54.9243 85.5601 55.0764 88.0134 56.4457V54.3157C86.3267 53.7071 84.7934 53.0985 82.6467 53.0985C77.4334 53.0985 74.5201 56.9022 74.5201 60.7058C74.5201 64.053 76.9734 68.1609 82.8001 68.1609C85.2534 68.1609 87.2467 67.4001 88.3201 66.9437V60.7058H83.2601V62.5315ZM54.5867 59.1843L49.5267 53.0985H47.5334V67.7044H49.6801V56.2936L54.4334 61.9229H54.8934L59.4934 56.2936V67.7044H61.6401V53.2507H59.6467L54.5867 59.1843ZM23.9201 18.7138C24.3801 18.7138 24.8401 18.2574 24.8401 17.801C24.8401 17.3445 24.3801 16.8881 23.9201 16.8881C23.4601 16.8881 23.0001 17.3445 23.0001 17.801C23.1534 18.2574 23.4601 18.7138 23.9201 18.7138Z" fill="#F44920"/>
</g>
</g>
<defs>
<clipPath id="clip0_320_449">
<rect width="184" height="68.4651" fill="white"/>
</clipPath>
</defs>
</svg>
