<svg width="64" height="67" fill="none" xmlns="http://www.w3.org/2000/svg"><g fill="#F44920" clip-path="url(#clip0_320_533)"><path d="M62.247 41.903l1.733-1.06.02-38.99L62.314.198l-.026 16.011-.04 25.694zM52.92 15.525l-.06.06-.043.04-.056.055-.05.047-.06.056-.056.052a8.48 8.48 0 01-.064.058l-.062.056-.068.06-.068.06-.071.062-.075.065-.075.063a14.244 14.244 0 01-.33.272l-.09.072a13.67 13.67 0 01-.187.145l-.094.073a17.774 17.774 0 01-.201.15l-.107.08-.103.074-.114.082-.108.075-.118.083-.114.078-.123.083-.12.08-.127.083-.125.08-.132.085-.133.082-.136.084c-.089.055-.18.109-.272.163l-.131.077-.157.09-.145.082-.154.086-.153.082-.157.085-.157.082a27.3 27.3 0 01-.163.085l-.161.08-.17.085a21.341 21.341 0 01-.694.326l-.176.078a22.237 22.237 0 01-.368.16l-.192.08a27.794 27.794 0 01-.575.227l-.09.035 2.837.353c.348-.14 2.982-1.211 4.466-2.27l-.008-2.59-.08.08-.03.03z"/><path d="M45.198 11.491v8.278l.148-.053a22.933 22.933 0 001.65-.67 28.838 28.838 0 00.437-.202l.146-.07.275-.135.117-.06c.098-.049.194-.098.288-.148l.087-.046c.102-.054.203-.108.302-.163l.055-.03.316-.179.026-.015c2.697-1.558 4.005-3.078 4.023-3.1l.286-.339.011 3.614.071 23.158 8.485.687.041-25.823L61.988 0l-7.08 1.052c-1.226 6.214-8.764 9.988-9.71 10.44zm-16.39 16.676l3.897 14.362 3.689-.064-5.737-21.062-1.849 6.764z"/><path d="M32.457 42.862L24.415 43l4.055-14.834v-.001l2.187-8.002 6.163 22.624-4.363.075zm19.594 18.44L36.634 8.986 24.356 6.782l-5.991 17.803L4.09 67l14.223-1.674 3.42-12.509 13.475-.8 4.06-.24.035.128 2.82 10.355 9.928-.959zM19.216 9.395L0 64.745l3.763 2.205 14.46-42.966 5.74-17.056-4.747 2.467z"/><path d="M35.63 52.322l2.639 9.571 3.513.356-2.759-10.129-3.393.202z"/></g><defs><clipPath id="clip0_320_533"><path fill="#fff" d="M0 0h64v67H0z"/></clipPath></defs></svg>