<svg width="175" height="62" fill="none" xmlns="http://www.w3.org/2000/svg"><g clip-path="url(#clip0_320_458)"><mask id="a" style="mask-type:luminance" maskUnits="userSpaceOnUse" x="-1" y="-21" width="202" height="83"><path d="M0 61.533h200.345v-82.012H-.001v82.012z" fill="#fff"/></mask><g mask="url(#a)"><path d="M19.756 0c4.187 0 5.503 3.004 6.607 6.002.464 1.274 11.345 31.073 11.672 31.968.088.25.029.659-.355.807-.386.146-6.04 2.344-6.353 2.462a.605.605 0 01-.777-.367c-.117-.308-2.464-6.805-2.728-7.53H11.694c-.254.725-2.63 7.236-2.735 7.53-.109.299-.445.501-.78.367-.334-.132-6.009-2.33-6.348-2.462a.638.638 0 01-.36-.807c.4-1.116 11.117-30.438 11.663-31.968C14.198 3.048 15.56 0 19.756 0zM.61 53.321a.618.618 0 00-.61.627v6.965c0 .343.27.62.61.62h38.275a.615.615 0 00.617-.62v-6.965a.62.62 0 00-.617-.627H.61zm19.108-43.59L14.267 26.1h10.992l-5.47-16.37h-.071zm81.803 26.843c-.803.27-1.333.337-1.963.337-1.305 0-2.027-.516-2.027-1.853 0-1.393.918-1.86 2.721-1.86.44 0 .873.064 1.076.135v.998c0 1.075.058 1.782.193 2.243zm4.634 1.596c-.962-1.462-1.214-2.323-1.214-4.166V30.26c0-2.015-.236-2.742-.768-3.477-.741-1.04-1.977-1.492-4.248-1.492-1.608 0-3.169.174-4.68.56l.546 2.66c1.022-.143 2.093-.266 2.849-.266 2.412 0 2.688.349 2.688 2.159v.675a7.01 7.01 0 00-1.839-.247c-3.632 0-5.55 1.777-5.55 4.72 0 2.758 2.05 4.262 4.548 4.262.932 0 1.906-.172 2.678-.487.466-.203.669-.323 1.271-.713.363.527 1.09 1.066 1.387 1.167l2.332-1.612zm35.927-1.596c-.808.27-1.328.337-1.963.337-1.309 0-2.041-.516-2.041-1.853 0-1.393.93-1.86 2.737-1.86.441 0 .876.064 1.074.135v.998c0 1.075.056 1.782.193 2.243zm4.639 1.596c-.97-1.462-1.217-2.323-1.217-4.166V30.26c0-2.015-.24-2.742-.777-3.477-.732-1.04-1.97-1.492-4.248-1.492-1.606 0-3.176.174-4.687.56l.539 2.66c1.024-.143 2.098-.266 2.874-.266 2.399 0 2.684.349 2.684 2.159v.675a6.999 6.999 0 00-1.848-.247c-3.637 0-5.562 1.777-5.562 4.72 0 2.758 2.055 4.262 4.564 4.262.944 0 1.909-.172 2.674-.487.473-.203.668-.323 1.271-.713.367.527 1.094 1.066 1.393 1.167l2.34-1.612zM175 39.502s-1.991-4.244-2.479-5.209c-.548-1.087-1.056-1.838-2.177-2.109v-.061c.751-.144 1.349-.598 2.003-1.987.619-1.353.803-1.645 1.168-1.968.357-.32.847-.204.847-.204l.184-2.502c-.52-.071-1.097-.073-1.693-.04-.988.058-1.499.343-1.986.833-.382.374-.641.934-.961 1.577-.339.701-.607 1.266-.96 1.98-.351.731-.516 1.061-1.459 1.061h-.615V19.789h-3.636v19.713h3.636v-5.668l.497-.01c1.043 0 1.226.262 1.777 1.361.645 1.311 1.881 4.317 1.881 4.317H175zm-102.448 0h4.197L70.4 20.118a7.634 7.634 0 00-2.378-.362c-.962 0-1.306.127-2.06.362l-6.717 19.384h4.027s.544-1.7 1.184-3.806h6.958a634.704 634.704 0 001.137 3.806zm-7.073-7.057l1.344-4.495a486.932 486.932 0 001.163-4.058h.115s.65 2.58 1.073 4.03c.16.576 1.271 4.523 1.271 4.523H65.48zm46.872-2.217a2.332 2.332 0 000 4.663 2.324 2.324 0 002.323-2.333 2.328 2.328 0 00-2.323-2.33zm-30.62-10.44h-3.645V39.5h3.646V19.789zm72.44 8.637c2.015.042 2.264.459 2.264 2.149v8.928h3.613v-9.241c0-2.015-.235-2.742-.772-3.477-.741-1.04-2.198-1.492-4.663-1.492-2.438 0-3.992.259-5.99.854v13.356h3.651V28.594c.958-.138 1.127-.169 1.897-.169zM90.75 19.438c-2.279 0-3.52.452-4.25 1.49-.536.737-.774 1.48-.774 3.5v1.718h-1.81v2.947h1.81v10.41h3.616l-.01-10.41h3.604v-2.947h-3.604l.01-1.579c0-1.808.275-2.158 2.69-2.158.262 0 .556.014.869.037l.57-2.831a20.853 20.853 0 00-2.722-.177zm29.008.184a124.54 124.54 0 015.753-.177c.318 0 .647.003.977.019 3.42 0 5.38 2.49 5.38 5.414 0 1.989-.91 3.31-3.045 4.095 2.511.556 3.827 2.517 3.827 4.915 0 1.76-.497 3.16-1.408 4.112-1.181 1.163-2.97 1.815-5.352 1.815-2.119 0-4.779-.066-6.132-.146V19.622zm5.753 3.23c-.603 0-1.349.01-2.088.037v4.733h2.09c.829 0 1.495-.23 1.949-.675.433-.42.659-1.012.659-1.716 0-1.514-.819-2.37-2.342-2.38h-.268zm.075 13.564h.158c1.899 0 3.062-1.01 3.076-3.043-.019-.73-.299-1.403-.8-1.89-.548-.551-1.325-.838-2.236-.838h-2.361v5.75c.666.014 1.4.016 2.163.021z" fill="#F44920"/></g></g><defs><clipPath id="clip0_320_458"><path fill="#fff" d="M0 0h175v61.533H0z"/></clipPath></defs></svg>