<svg width="185" height="59" fill="none" xmlns="http://www.w3.org/2000/svg"><g clip-path="url(#clip0_320_467)"><path d="M129.597 4.463s-3.468 1.383-7.501 5.837-6.382 9.463-4.644 10.795c.668.506 2.208.602 5.002-1.929a22.11 22.11 0 005.913-8.215c1.805-4.409 1.23-6.434 1.23-6.482m22.074 8.007c-4.481-2.302-7.757-5.123-11.165-6.868-3.251-1.672-5.353-2.371-7.982-2.019a8.112 8.112 0 00-1.083.271s1.354 4.632-4.033 12.413c-5.456 7.89-10.407 7.835-11.815 5.668-1.473-2.287.43-6.949 3.61-11.098 3.329-4.34 9.176-7.938 9.176-7.938s-1.865-1.142-6.442 1.459c-4.467 2.525-12.155 8.552-19.289 18.716-7.134 10.165-8.548 15.758-9.57 20.161-1.023 4.403-.094 9.119 4.779 9.119 4.872 0 10.545-7.447 12.145-10.035 2.975-4.822 4.915-12.217.866-11.201-1.994.5-3.609 2.712-4.629 4.842a20.736 20.736 0 00-1.467 4.28 16.838 16.838 0 00-3.95 2.302 29.25 29.25 0 00-3.747 3.315s.018-3.52 2.818-9.216c2.8-5.695 7.94-8.296 10.852-8.54 2.623-.21 6.036 2.02 3.143 10.246-2.893 8.227-11.429 18.229-20.395 18.352-8.275.115-13.689-10.466-2.172-28.93C104.068 7.378 119.019 1.119 123.874.423c4.854-.696 6.433 1.45 6.433 1.45a20.848 20.848 0 019.231-1.525c5.928.4 10.512 4.604 16.564 7.557-1.573 1.507-3.074 3.09-4.428 4.572m26.631-6.868c-4.109 2.64-9.793 5.033-15.256 4.52a81.44 81.44 0 00-4.346 4.897c9.472 1.878 17.77-4.002 22.182-9.007A29.484 29.484 0 00185 .09a36.97 36.97 0 01-6.698 5.518M165.69 32.344c.072-.125.131-.257.175-.395a.959.959 0 00-.87-.831c-.902-.043-2.132.13-5.359 3.71a48.648 48.648 0 00-6.861 9.751c-1.847 3.381-2.596 5.9-1.534 6.551.345.18.745.22 1.119.115.719-.172 1.534-.847 2.773-2.284.581-.675 1.224-1.63 1.994-2.688 2.136-2.912 7.502-12.076 8.563-13.929zm-33.524 3.894c.538-1.41 1.224-4.18-.201-5.268-1.531-1.154-5.435 1.555-5.457 4.333-.027 2.845 2.75 4.132 3.414 4.313.379.102.512.087.695-.217a25.412 25.412 0 001.549-3.161zm-2.954 5.174a11.783 11.783 0 01-2.682-1.715 8.61 8.61 0 01-2.01-2.45c-.054-.09-.108-.021-.168.06-.06.082-.301.302-2.382 3.357-2.082 3.056-5.279 9.387-2.385 10.466 1.852.69 4.935-2.561 6.617-4.716a40.407 40.407 0 003.107-4.737c.087-.184 0-.226-.094-.265m32.821 7.314c-.785 1.26-1.681 3.676.902 2.172 3.161-1.829 7.664-8.673 7.664-8.673h2.042a68.503 68.503 0 01-6.19 8.137c-3.203 3.556-7.11 6.786-9.862 6.467-3.215-.377-2.208-4.605-2.208-4.605s-4.599 4.906-7.781 4.554c-4.298-.476-2.987-5.798-2.987-5.798s-4.86 5.976-8.172 5.792c-5.191-.302-3.886-6.63-2.442-11.087a97.04 97.04 0 011.489-4.255s-.514.136-1.621.301c-.578.082-1.63.142-1.63.142s-2.163 3.821-3.892 6.117c-1.73 2.297-9.081 10.213-13.406 8.628-4-1.465-2.677-7.6-.349-12.476 3.399-7.109 12.958-17.322 18.471-15.972 5.714 1.39.129 11.837.129 11.837s0 .04.06.067c.115.042.412.075 1.101-.06a12.342 12.342 0 002.09-.624s5.745-12.054 12.092-19.94c6.346-7.887 19.005-21.47 23.974-18.184 1.203.807.662 3.589-.974 6.964-.737.24-1.486.44-2.244.603 1.095-1.992 1.82-3.67 2.036-4.843.749-4.074-8.746 4.52-15.532 13.754a128.256 128.256 0 00-10.858 17.608 29.719 29.719 0 003.501-2.505 100.223 100.223 0 008.614-8.058 93.797 93.797 0 007.333-8.48 19.98 19.98 0 002.157-.223 93.042 93.042 0 01-8.091 9.577c-2.707 2.742-5.636 5.693-8.181 7.835a68.184 68.184 0 01-7.176 5.343s-5.935 11.991-2.707 12.76c1.897.458 5.645-5.325 5.645-5.325s4.891-7.477 7.838-10.85c4.022-4.58 7.484-7.232 10.942-7.28 2.016-.036 3.204 2.11 3.204 2.11l.947-1.47h5.835s-10.897 18.526-11.769 19.922m16.272-43.1c-4.109 2.64-9.793 5.033-15.256 4.52a81.44 81.44 0 00-4.346 4.897c9.472 1.878 17.77-4.002 22.182-9.007 1.61-1.8 2.993-3.79 4.118-5.928a36.97 36.97 0 01-6.698 5.518zm-81.946 9.089h-5.55l-3.136 5.078h5.549l3.137-5.078zM70.08 32.28c2.361-3.243 8.876-14.607 8.876-14.607a.956.956 0 00-.866-.831c-.902-.043-2.406.262-5.393 4.008-2.987 3.745-5.306 6.726-6.996 9.827-1.853 3.384-2.662 5.77-1.597 6.418a1.58 1.58 0 001.116.115c.692-.175 1.597-.871 2.84-2.302.583-.67 1.244-1.57 2.02-2.628zM40.304 16.91c-1.534-1.16-5.435 1.556-5.456 4.328-.024 2.848 3.51 3.719 3.967 3.74a.694.694 0 00.388-.081.464.464 0 00.186-.205c.416-.818.79-1.657 1.12-2.514.538-1.41 1.22-4.18-.205-5.267zm-2.313 9.804a12.916 12.916 0 01-3.008-1.386 6.27 6.27 0 01-2.148-2.384c-.054-.09-.114-.021-.168.06-.054.082-.367.473-2.454 3.541-2.088 3.068-5.18 9.342-2.283 10.42 1.847.703 4.966-2.576 6.659-4.721a55.941 55.941 0 003.507-5.262c.07-.184 0-.226-.102-.26m45.32 1.881h2.034S75.16 43.371 69.406 42.684c-3.212-.377-2.258-4.349-2.258-4.349s-4.512 5.292-8.656 4.219c-3.76-.967-1.333-7.233-1.333-7.233-.427.172-8.563 9.36-14.28 7.158-5.983-2.315-2.876-10.008-1.74-12.323.966-1.95 2.034-3.848 2.034-3.848s-.917.26-1.504.392c-.586.132-1.434.301-1.434.301s-2.83 4.608-4.56 6.907c-1.73 2.3-9.08 10.2-13.412 8.628-4.33-1.573-3.257-7.645-.824-12.467 3.946-7.82 13.31-17.43 18.949-15.972 5.697 1.456.98 10.713.98 10.713s1.134.148 3.85-1.708c3.91-2.673 9.072-9.864 14.66-9.02 2.635.398 5.09 3.095 1.733 8.218-1.071 1.645-2.867 3.116-4.241 1.66-.858-.904-.109-2.552.79-3.679a3.52 3.52 0 013.008-1.38s.924-2.11-1.425-2.08c-1.901.037-6.714 4.476-9.43 8.96-2.49 4.116-6.265 11.129-2.475 12.656 3.474 1.405 10.085-6.457 13.147-10.577 3.062-4.12 10.04-13.455 15.893-13.83 2.015-.132 3.215 1.71 3.215 1.71l.677-1.073h5.853S75.6 33.097 74.739 34.493c-.677 1.09-1.576 3.544.903 2.17 2.478-1.375 7.672-8.059 7.672-8.059zM80.13 58.137a24.206 24.206 0 00-14.708-4.3 9.009 9.009 0 00-7.176 3.896c-2.232-3.902-6.644-6.298-13.466-6.244-11.023.127-21.956 5.22-30.619 5.213C5.86 56.702-.196 51.474 0 42.19.364 25.895 14.106 11.222 24.363 4.62 30.276.827 35.22-.3 38.453.064c2.359.262 5.195 2.993 3.406 7.016-2.63 5.88-6.26 5.397-6.124 2.585.075-1.829 1.29-2.98 2.205-3.616.58-.4 1.606-.515 2.141-.527.52-.44.902-3.659-3.308-2.6-4.211 1.057-9.324 5.215-14.179 10.589-4.854 5.373-12.413 15.528-14.28 26.193-.873 4.945-.301 13.965 11.402 13.862 9.925-.081 24.555-6.63 38-6.494 5.218.051 9.76 1.462 13.3 3.65 3.477 2.145 7.645 5.28 9.125 7.419" fill="#F44920"/></g><defs><clipPath id="clip0_320_467"><path fill="#fff" d="M0 0h185v58.143H0z"/></clipPath></defs></svg>