<svg width="199" height="64" fill="none" xmlns="http://www.w3.org/2000/svg"><g clip-path="url(#clip0_320_513)"><path d="M82.484 35.606V46.57c0 .288 0 .433-.144.577-.144.144-.288.288-.577.288h-6.922c-.288 0-.432-.144-.576-.288-.145-.144-.289-.433-.289-.577V17.43c0-.289.144-.433.288-.578.145-.144.289-.288.577-.288h8.653c.288 0 .432.144.576.288.145.145.289.433.289.578v5.626c0 .288-.144.432-.289.577-.144.144-.288.288-.576.288h-1.01v4.472h1.01c.576 0 .865.289.865.866v5.626c0 .577-.289.866-.865.866l-1.01-.145zm3.75 0c-.289 0-.433-.144-.577-.288-.144-.145-.289-.289-.289-.577v-5.626c0-.289.145-.433.289-.577.144-.145.288-.289.577-.289h8.796c.577 0 .865.289.865.866v5.626c0 .577-.288.865-.865.865h-8.796zm13.843-11.54c-.144 0-.433-.145-.433-.289-.144-.144-.144-.289-.144-.577v-5.77c0-.578.288-.866.721-.866h6.057c.144 0 .432.144.576.288.145.145.289.433.289.578v5.77c0 .288-.144.433-.144.577-.145.144-.289.288-.577.288h-6.345zm0 23.37c-.144 0-.433-.145-.577-.289-.144-.144-.144-.288-.144-.577V25.94c0-.288 0-.432.144-.576.144-.144.288-.289.433-.289h6.056c.144 0 .433.145.577.289.144.144.288.288.288.577V46.57c0 .288-.144.433-.144.577-.144.144-.288.288-.577.288h-6.056zm32.157-.001c-.144 0-.288 0-.433-.144-.144-.144-.288-.144-.288-.288-.865-1.443-1.875-2.886-3.028-4.617a375.073 375.073 0 01-3.605-5.481l-6.634 10.098s-.144.144-.288.144c-.144.144-.288.144-.433.144h-7.931a.793.793 0 01-.721-.432c-.144-.289-.144-.578.144-.866L119.4 30.99c0-.144.144-.144.288-.289.145 0 .289-.144.289-.144h9.806c.288 0 .432.144.576.289l10.239 15.147c.144.288.288.577.144.865a.793.793 0 01-.721.433l-7.787.145zm-.865-18.176s-.144.144-.289.144c-.144.144-.288.144-.288.144h-11.536c-.144 0-.144 0-.289-.144-.144 0-.288-.144-.288-.144l-7.787-11.252c-.144-.289-.288-.577-.144-.866a.792.792 0 01.721-.433h8.075c.144 0 .289 0 .433.145a.446.446 0 00.288.144l4.759 7.645 5.047-7.79.288-.288c.145-.144.289-.144.433-.144h8.075c.433 0 .577.144.721.432.145.289.145.578-.144.866l-8.075 11.54zm37.06 10.963c0 2.886-2.307 5.338-5.336 5.338-2.884 0-5.335-2.308-5.335-5.338 0-2.885 2.307-5.337 5.335-5.337 3.029 0 5.336 2.308 5.336 5.337zm14.564 0c0 2.886-2.307 5.338-5.335 5.338-2.884 0-5.336-2.308-5.336-5.338 0-2.885 2.308-5.337 5.336-5.337 3.028 0 5.335 2.308 5.335 5.337zm14.709 0c0 2.886-2.307 5.338-5.335 5.338-2.884 0-5.336-2.308-5.336-5.338 0-2.885 2.307-5.337 5.336-5.337 2.884 0 5.335 2.308 5.335 5.337zm-32.157-19.475c-1.298-1.298-2.884-2.02-4.759-2.02-1.73 0-3.316.578-4.614 1.876-1.298 1.299-1.875 2.741-1.875 4.472v8.079h2.019V25.22c0-1.154.433-2.164 1.298-3.03.865-.865 1.874-1.298 3.172-1.298s2.452.433 3.317 1.442l.144.145 1.442-1.443-.144-.289zm2.019-1.587v14.138h2.019V19.161h-2.019zm15.574 1.587c-1.298-1.298-2.884-2.02-4.759-2.02-1.73 0-3.317.578-4.615 1.876-1.297 1.299-1.874 2.741-1.874 4.472v1.876c0 1.73.577 3.173 1.874 4.472 1.298 1.154 2.885 1.73 4.615 1.73 1.875 0 3.461-.576 4.759-1.874l.144-.145-1.442-1.442-.144.144c-.866 1.01-2.019 1.443-3.317 1.443a4.47 4.47 0 01-3.172-1.299c-.866-.865-1.298-1.875-1.298-3.03v-1.875c0-1.154.432-2.164 1.298-3.03a4.47 4.47 0 013.172-1.298c1.298 0 2.451.433 3.317 1.443l.144.144 1.442-1.442-.144-.145zm-32.446 0c-1.298-1.298-2.74-1.875-4.614-1.875-1.731 0-3.317.577-4.615 1.875-1.298 1.299-1.875 2.741-1.875 4.473v12.262h2.019v-5.915c.433.433 1.01.865 1.731 1.154.865.433 1.73.577 2.74.577 1.73 0 3.316-.577 4.614-1.731 1.298-1.298 1.875-2.741 1.875-4.472V25.22c0-1.732-.577-3.318-1.875-4.473zm-1.442 9.377c-.865.866-1.875 1.299-3.172 1.299a4.473 4.473 0 01-3.173-1.299c-.865-.865-1.298-1.875-1.298-3.03V25.22c0-1.154.433-2.163 1.298-3.029.865-.866 1.875-1.298 3.173-1.298 1.297 0 2.307.433 3.172 1.298.865.866 1.298 1.875 1.298 3.03v1.875c0 1.154-.289 2.164-1.298 3.03zm45.136-.144c-.866.866-2.019 1.443-3.317 1.443a4.474 4.474 0 01-3.173-1.299c-.865-.865-1.297-1.875-1.297-3.029h10.959v-2.02c0-1.73-.577-3.318-1.875-4.472-1.297-1.154-2.74-1.875-4.614-1.875-1.731 0-3.317.577-4.615 1.875-1.297 1.154-1.874 2.741-1.874 4.472v1.876c0 1.73.577 3.173 1.874 4.472 1.298 1.154 2.884 1.73 4.615 1.73 1.874 0 3.461-.576 4.759-1.874l.144-.145-1.442-1.442-.144.288zm-6.49-7.934a4.474 4.474 0 013.173-1.299c1.298 0 2.307.433 3.172 1.299.866.865 1.298 1.875 1.298 3.03h-8.94c0-1.155.432-2.165 1.297-3.03zm-90.992-.721v-3.751c0-.289-.144-.433-.288-.577-.144-.145-.288-.289-.577-.289h-9.805c-.29 0-.433.145-.577.289-.144.144-.145.288-.145.433v5.626c0 .288.144.432.289.577.144.144.288.288.577.288h9.805c.289 0 .433-.144.577-.288.144-.145.144-.289.144-.433v-1.875zM63.45 32a31.64 31.64 0 01-31.725 31.737A31.64 31.64 0 010 32C0 14.544 14.132.263 31.725.263 49.317.263 63.449 14.544 63.449 32z" fill="#F44920"/><path d="M60.998 32c0 16.157-13.123 29.284-29.273 29.284C15.574 61.284 2.45 48.157 2.45 32c0-16.157 13.123-29.285 29.274-29.285 16.15 0 29.273 13.128 29.273 29.285z" fill="#F44920"/><path d="M31.725 55.225C44.547 55.225 54.94 44.828 54.94 32c0-12.828-10.394-23.226-23.216-23.226C18.902 8.774 8.508 19.173 8.508 32s10.394 23.225 23.217 23.225z" fill="#fff"/><path d="M28.84 35.606V46.57c0 .288 0 .433-.144.577-.144.144-.288.288-.577.288h-6.921c-.289 0-.433-.144-.577-.288-.144-.144-.288-.433-.288-.577V17.43c0-.289.144-.433.288-.578.144-.144.288-.288.577-.288h8.652c.288 0 .433.144.577.288.144.145.288.433.288.578v5.626c0 .288-.144.432-.288.577-.144.144-.289.288-.577.288h-1.01v4.472h1.01c.577 0 .865.289.865.866v5.626c0 .577-.288.866-.865.866l-1.01-.145zm3.606 0c-.289 0-.433-.144-.577-.288-.144 0-.144-.289-.144-.433v-5.77c0-.289.144-.433.288-.577.144-.145.288-.289.577-.289h8.796c.577 0 .865.289.865.866v5.626c0 .577-.288.865-.865.865h-8.94zm10.671-14.281v-3.751c0-.289-.145-.433-.289-.577-.144-.145-.288-.289-.577-.289h-9.805c-.289 0-.433.145-.577.289-.144.144-.144.288-.144.433v5.626c0 .288.144.432.288.577.144.144.288.288.577.288h9.805c.289 0 .433-.144.577-.288.145-.145.145-.289.145-.433v-1.875z" fill="#F44920"/></g><defs><clipPath id="clip0_320_513"><path fill="#fff" transform="translate(0 .263)" d="M0 0h199v63.474H0z"/></clipPath></defs></svg>