<svg width="173" height="63" fill="none" xmlns="http://www.w3.org/2000/svg"><g clip-path="url(#clip0_320_471)" fill-rule="evenodd" clip-rule="evenodd" fill="#F44920"><path d="M12.643 0L0 8.776v7.04l12.643-8.853 12.629 8.852v-7.04L12.644 0zm125.342 27.166c-1.729 0-3.355.393-4.789 1.114l-1.722-10.531h-3.586v28.62c.174.239.299.553.427.872.167.42.339.85.628 1.13 4.913 4.746 12.905 4.746 17.818 0 4.91-4.75 4.912-12.904.001-17.653-2.424-2.34-5.596-3.52-8.777-3.552zm-125.316-.018c5.743 0 9.894 4.502 9.894 10.055v14.728H17.53V38.094c0-3.084-2.596-5.592-5.79-5.592a5.86 5.86 0 00-3.936 1.496V51.93h-5.03V17.749h3.662l1.442 10.53a10.646 10.646 0 014.79-1.13zm69.166 2.833l-4.541 3.25v8.424c0 2.48 2.016 5.22 4.583 5.22v4.994h-.373c-5.41 0-9.813-4.984-9.813-10.214v-18.45h3.519l1.05 4.048h5.17l.404 2.728zm91.054-2.675h-5.217l.002 17.344c-1.064.96-2.374 1.876-3.856 1.876-3.191 0-5.749-2.888-5.749-5.972V27.306h-4.874l.002 11.931v2.21c0 5.554 3.953 10.434 9.697 10.434 1.746 0 3.301-.8 4.745-1.54l.033-.018v.162c0 3.77-3.075 6.825-6.973 6.825h-1.847v5.007l2.225-.001c6.751 0 11.814-5.303 11.814-11.828l-.002-23.182zm-53.272 18.622a3.508 3.508 0 00-1.056 2.481c0 .927.388 1.834 1.056 2.49a3.77 3.77 0 002.576 1.021c.953 0 1.89-.375 2.57-1.021a3.51 3.51 0 001.056-2.49 3.5 3.5 0 00-1.056-2.481 3.725 3.725 0 00-5.146 0zm-58.211-4.582a2.68 2.68 0 012.67 2.691 2.68 2.68 0 01-2.67 2.691h-8.64v5.203h9.016c4.328 0 7.836-3.534 7.836-7.894s-3.508-7.894-7.836-7.894h-2.746a1.812 1.812 0 01-1.804-1.819c0-1.003.809-1.818 1.804-1.818h7.258v-5.2h-7.636c-3.848 0-6.968 3.143-6.968 7.02s3.12 7.02 6.968 7.02h2.748zM37.908 51.95c-6.948 0-12.6-5.563-12.6-12.401 0-6.841 5.652-12.4 12.6-12.4 6.947 0 12.597 5.559 12.597 12.4 0 6.838-5.65 12.401-12.598 12.401zm-7.06-12.401c0-3.835 3.166-6.95 7.06-6.95 3.892 0 7.06 3.115 7.06 6.95 0 3.83-3.168 6.948-7.06 6.948-3.894 0-7.06-3.118-7.06-6.948zm76.572-2.553c0-5.23 4.403-9.486 9.813-9.486h.793v4.993h-.421c-2.567 0-5.143 2.011-5.143 4.493l.001 14.906h-5.043V36.995zm-2.403-5.32c-2.313-2.757-5.836-4.527-9.785-4.527-6.946 0-12.599 5.459-12.599 12.176 0 6.714 5.653 12.557 12.599 12.557a12.78 12.78 0 008.647-3.338l-3.918-3.859a7.153 7.153 0 01-4.73 1.77c-3.892 0-7.058-3.366-7.058-7.13 0-3.765 3.166-6.825 7.059-6.825 1.619 0 3.107.533 4.298 1.423l-5.322 4.307v6.163l10.809-8.16v-4.558zm28.104 2.605v10.385c2.766 2.428 7.054 2.358 9.723-.226 2.755-2.66 2.756-7.271.001-9.936-2.669-2.58-6.958-2.648-9.724-.223z"/></g><defs><clipPath id="clip0_320_471"><path fill="#fff" d="M0 0h173v62.317H0z"/></clipPath></defs></svg>