<svg width="83" height="84" fill="none" xmlns="http://www.w3.org/2000/svg"><path d="M25.482 70.08v7.85c0 2.23-1.111 3.42-3.132 3.42-2.031 0-3.15-1.224-3.15-3.515V70.09h-2.794v7.841c0 3.859 2.153 6.07 5.908 6.07 3.79 0 5.963-2.254 5.963-6.183V70.08h-2.795zm10.283 0l-6.07 13.706h2.853l1.172-2.654.084-.2h6.306l1.237 2.854h2.93l-6.014-13.625-.054-.08h-2.444zm16.619 0l-3.128 9.43-3.045-9.423h-2.975l4.802 13.708h2.314l3.135-9.005 3.131 9.005h2.334l4.79-13.708h-2.898l-3.052 9.424-3.128-9.43h-2.28zm27.351 0v13.695h2.758V70.08h-2.758zm-79.11.001v13.713h2.797v-5.57h6.312v5.57h2.797V70.081H9.734v5.532H3.422v-5.532H.626zm65.371.01v13.694h10.406v-2.497h-7.648v-3.396h5.085v-2.497h-5.085v-2.808h7.381V70.09H65.996zM36.95 73.55l1.993 4.59h-.007l.136.317h-4.229l.134-.316 1.973-4.591zM35.44 0c-1.11.097-4.106.776-4.106.776-6.754 1.737-8.352 7.838-8.352 7.838-.33 1.025-.48 2.077-.524 3.067v1.348c.09 2.083.555 3.638.555 3.638 2.256 9.956 13.35 26.316 15.734 29.753.169.167.304.107.304.107.258-.07.238-.317.238-.317l.005.002C42.965 9.682 35.44 0 35.44 0zm12.133 0s-7.559 9.687-3.884 46.238h.005c.028.232.194.28.194.28.246.095.372-.14.372-.14l.001.002c2.445-3.524 13.475-19.795 15.722-29.713 0 0 1.218-4.8.042-8.054 0 0-1.67-6.194-8.433-7.831 0 0-1.949-.492-4.019-.782zM12.707 10.966S6.272 17.045 5.952 23.49h.002v.976l.014.223c.277 5.197 4.205 8.273 4.205 8.273 6.33 6.139 21.655 13.89 25.216 15.648.05.019.234.079.342-.057 0 0 .056-.042.082-.119v-.162l-.012-.028C26.048 27.04 12.707 10.966 12.707 10.966zm57.583 0S56.988 26.99 47.24 48.15h.003s-.115.245.071.403c0 0 .056.042.133.059h.135a.259.259 0 00.076-.034c3.657-1.807 18.864-9.505 25.164-15.615 0 0 3.989-3.189 4.198-8.308.46-7.11-6.73-13.69-6.73-13.69zm11.972 21.05s-21.686 11.582-32.898 19.11l.003.003s-.203.133-.132.37c0 0 .106.192.261.192 4.016.007 19.214.025 19.595-.046 0 0 1.965-.078 4.393-1.006 0 0 5.406-1.71 8.214-7.818 0 0 1.283-2.554 1.301-6.143v-.152a14.52 14.52 0 00-.737-4.51zM.729 32.07c-1.973 6.08.683 10.978.688 10.986 2.768 5.82 8.052 7.584 8.052 7.584 2.44.998 4.88 1.067 4.88 1.067.38.07 15.173.007 19.137-.012.167-.001.26-.169.26-.169a.217.217 0 00.026-.054v-.152a.424.424 0 00-.12-.174h.002C22.447 43.62.73 32.07.73 32.07zm32.304 21.494l-25.511.89c2.766 4.909 7.426 8.723 12.28 7.552 3.349-.834 10.937-6.101 13.441-7.881l-.008-.007c.195-.174.125-.314.125-.314-.064-.228-.327-.228-.327-.228v-.012zm16.896.019l-.002.009s-.224.028-.287.195c0 0-.054.228.096.342l-.002.002c2.442 1.743 9.846 6.895 13.413 7.895 0 0 .54.183 1.446.216h.545c2.39-.084 6.553-1.306 10.336-7.774l-25.545-.885z" fill="#F44920"/></svg>