<svg width="184" height="69" fill="none" xmlns="http://www.w3.org/2000/svg"><g clip-path="url(#clip0_320_449)"><path d="M28.367 23.126c.306 0 .613-.304.613-.609 0-.304-.307-.608-.613-.608-.307 0-.614.304-.614.608-.153.305.154.609.614.609zm4.293-4.412c.46 0 .92-.457.92-.913s-.46-.913-.92-.913-.92.456-.92.913c0 .456.307.913.92.913zM75.747.913h-6.44v43.97h6.44V.913zM11.96 61.619c0 1.369-.153 2.282-.46 2.738-.46.761-1.533 1.978-3.833 1.978-1.687 0-2.76-.608-3.374-1.217-.766-.76-.92-1.521-.92-3.5v-8.367H1.227v8.368c0 1.065 0 2.738.766 3.955C3.22 67.4 5.52 68.161 7.667 68.161c1.686 0 3.373-.457 4.753-1.522 1.687-1.521 1.687-3.499 1.687-5.02V53.25H11.96v8.368zm111.933-6.543h5.214v12.78h2.146v-12.78h5.214v-1.825h-12.574v1.825zM114.54 53.1l-6.44 14.758h2.147l1.84-4.26h6.44l1.993 4.26h2.147L115.92 53.1h-1.38zm-1.533 8.52l2.3-5.325 2.453 5.325h-4.753zm28.213 6.238h2.147V53.25h-2.147v14.606zM155.94 53.1c-5.213 0-8.127 3.651-8.127 7.607 0 4.108 3.22 7.455 7.974 7.455 4.906 0 8.28-3.347 8.28-7.607 0-3.956-3.067-7.456-8.127-7.456zm4.447 11.258c-1.074 1.065-2.76 1.674-4.447 1.674-3.22 0-5.827-2.13-5.827-5.477 0-2.435 1.687-5.63 5.98-5.63 3.987 0 5.827 3.043 5.827 5.477 0 1.37-.613 3.043-1.533 3.956zm19.78-11.106v11.41l-10.12-11.41h-1.687v14.606h1.993v-11.26l10.12 11.26h1.84V53.25h-2.146zm-47.994-30.43c0-11.867-9.2-22.517-23.92-22.517-15.18 0-23.766 11.107-23.766 22.67 0 12.324 9.506 22.517 23.46 22.517 14.413 0 24.226-10.041 24.226-22.67zm-23.92 16.737c-9.353 0-17.173-6.543-17.173-16.584 0-7.303 5.06-16.736 17.48-16.736 11.653 0 17.173 9.28 17.173 16.584 0 3.803-1.686 8.52-4.446 11.563-3.067 3.195-8.28 5.173-13.034 5.173zm53.82-11.868l13.647-17.04v34.233h6.44V.913h-5.98l-14.72 18.105L146.587.913h-5.98v43.97h6.44V10.65l13.8 17.04h1.226zM100.28 60.858c1.687-.609 2.453-1.978 2.453-3.652 0-1.521-.766-2.89-2.3-3.651-.92-.304-1.84-.304-2.606-.304h-3.834v14.606h2.147v-6.39h.613c1.074 0 1.84 0 3.22 1.825.46.609 2.607 3.804 3.067 4.565h2.76c-1.073-1.37-1.38-1.978-1.993-2.891-1.227-1.826-2.147-3.195-3.527-4.108zm-1.073-1.37c-.614.153-1.84.153-2.147.153h-.767v-4.565h.614c1.38 0 1.993.153 2.606.305.767.304 1.074 1.065 1.074 1.978 0 .76-.307 1.673-1.38 2.13zm-43.7-37.883c0-7-3.22-14.758-8.434-20.692H42.32c1.227 1.065 2.913 3.043 2.913 3.043 4.447 5.02 7.207 11.715 7.207 17.8v.153h-7.513C43.7 10.194 34.347.913 22.847.913 10.58.913.767 11.41.767 24.19c0 6.999 3.22 14.758 8.433 20.692h4.753c-1.226-1.065-2.913-3.043-2.913-3.043-4.447-5.021-7.207-11.715-7.207-17.801v-.152h7.514c1.073 11.715 10.58 20.996 22.08 20.996 12.113 0 22.08-10.498 22.08-23.278zM33.887 41.84v-5.477c3.22.152 5.98 1.369 8.126 3.347-2.606 1.217-5.366 1.978-8.126 2.13zm0-6.695v-3.499h10.426c-1.533 1.978-3.526 3.5-5.52 4.412-1.686-.456-3.22-.76-4.906-.913zm9.046 3.956c-.92-.913-1.84-1.521-2.913-2.13 2.147-1.217 4.14-3.043 5.673-5.173h4.14c-1.686 2.891-3.986 5.478-6.9 7.303zm9.354-15.823c-.154 2.587-.767 4.869-1.687 7.151h-3.987c1.074-1.978 1.687-4.108 1.687-6.39v-.609h3.987v-.152zm-10.58-1.37h-3.834v-.151c0-2.282-.613-4.413-1.686-6.39h3.833c.92 2.13 1.533 4.26 1.687 6.542zm-2.3-7.759H35.42c-1.533-2.13-3.527-3.955-5.673-5.172 1.073-.609 1.993-1.218 2.76-2.13 2.913 1.825 5.213 4.26 6.9 7.302zM23.767 3.957c2.76.152 5.366.913 7.82 2.13-1.994 1.826-4.754 3.043-7.82 3.347V3.956zm0 6.694c1.686-.152 3.22-.456 4.6-1.065 2.146.913 4.14 2.434 5.52 4.412h-10.12V10.65zm-1.38-6.694v5.477c-3.22 0-5.98-1.37-8.127-3.347a20.724 20.724 0 018.127-2.13zm0 6.694v3.5H11.96c1.533-1.978 3.527-3.5 5.52-4.413 1.533.457 3.22.913 4.907.913zm-9.2-3.956c.92.913 1.84 1.522 2.913 2.13-2.147 1.218-4.14 3.043-5.673 5.173h-4.14a22.543 22.543 0 016.9-7.303zM3.833 22.517c.154-2.434.767-4.868 1.84-6.998H9.66c-1.073 1.978-1.687 4.108-1.687 6.39v.608h-4.14zm5.367 0v-.608c0-2.282.767-4.564 1.84-6.39h23.767c1.226 1.978 1.84 4.108 1.84 6.39v1.522H46.92v.608c0 2.282-.767 4.564-1.84 6.39H21.313c-1.073-1.978-1.84-4.108-1.84-6.39v-1.522H9.2zm5.213 1.37h3.834v.152c0 2.282.613 4.412 1.686 6.39H16.1c-.92-2.13-1.533-4.26-1.687-6.542zm2.454 7.911h3.986c1.534 2.13 3.527 3.956 5.674 5.173-1.074.609-1.994 1.217-2.76 2.13-3.067-1.825-5.367-4.412-6.9-7.303zM32.353 41.84c-2.76-.152-5.366-.913-7.82-2.13 1.994-1.826 4.754-3.043 7.82-3.347v5.477zm0-6.695c-1.686.153-3.22.457-4.6 1.066-2.146-.913-4.14-2.435-5.52-4.413h10.12v3.348zM20.7 24.191c.153 0 .307-.152.307-.304l1.533-3.804.153 3.652-.613 4.716c0 .152 0 .304.307.456h.153c.153 0 .307-.152.46-.304l.613-4.412h.767l.613 4.412c0 .152.154.304.46.304h.154c.153 0 .306-.304.306-.456l-.613-4.716.153-3.652 1.534 3.804h.613l-.46 2.586c0 .152 0 .305.153.457 0 .152.154.152.307.152v1.065c0 .152.153.304.307.304.153 0 .306-.152.306-.304v-1.065h.307v1.065c0 .152.153.304.307.304.153 0 .306-.152.306-.304v-1.065c.154 0 .154-.152.307-.152.153-.152.153-.305.153-.457l-.46-2.282h.307l1.687-3.956.306 1.522v.76L29.9 29.06h4.753l-1.533-6.543v-.76l.307-1.674 1.226 3.195c0 .152.154.305.307.305h.153c.154-.153.307-.305.154-.457l-1.38-3.5c0-.151-.154-.304-.307-.304h-2.76c-.153 0-.307.153-.307.305l-1.38 3.803h-1.686l-1.687-4.108c0-.152-.153-.304-.307-.304h-2.76c-.153 0-.306.152-.306.304l-1.84 4.26c0 .153 0 .457.153.457v.152zm11.04 40.47l-10.12-11.41h-1.687v14.606h1.994v-11.26l10.12 11.26h1.84V53.25h-1.994v11.41h-.153zm35.88 3.196h2.147V53.25H67.62v14.606zm15.64-5.325h2.913v3.042c-1.38.457-2.146.609-3.22.609-3.68 0-6.133-2.434-6.133-5.63 0-3.499 2.913-5.629 5.827-5.629.766 0 2.913.152 5.366 1.522v-2.13c-1.686-.609-3.22-1.218-5.366-1.218-5.214 0-8.127 3.804-8.127 7.608 0 3.347 2.453 7.455 8.28 7.455 2.453 0 4.447-.76 5.52-1.217v-6.238h-5.06v1.825zm-28.673-3.348l-5.06-6.085h-1.994v14.605h2.147v-11.41l4.753 5.629h.46l4.6-5.63v11.411h2.147V53.251h-1.993l-5.06 5.933zM23.92 18.714c.46 0 .92-.457.92-.913s-.46-.913-.92-.913-.92.456-.92.913c.153.456.46.913.92.913z" fill="#F44920"/></g><defs><clipPath id="clip0_320_449"><path fill="#fff" d="M0 0h184v68.465H0z"/></clipPath></defs></svg>