<svg width="195" height="66" fill="none" xmlns="http://www.w3.org/2000/svg"><g clip-path="url(#clip0_320_504)"><mask id="a" style="mask-type:luminance" maskUnits="userSpaceOnUse" x="0" y="0" width="195" height="66"><path d="M0 .5h195v65H0V.5z" fill="#fff"/></mask><g mask="url(#a)"><path d="M24.397 29.32c-7.73 0-14.025-6.468-14.025-14.415C10.372 6.959 16.665.5 24.397.5s14.026 6.469 14.026 14.416c0 7.945-6.294 14.414-14.026 14.414v-.01zm0-20.954c-3.516 0-6.362 2.936-6.362 6.54 0 3.603 2.855 6.538 6.362 6.538 3.508 0 6.363-2.935 6.363-6.538 0-3.604-2.857-6.54-6.363-6.54zm-12.4 17.098H0V65.5h11.996V25.463zm23.747 21.42c-1.114-.587-2.55-.83-4.275-.83h-4.934V65.5h3.929v-6.52h.66c1.665 0 2.985-.262 4.049-.678 2.807-1.123 3.761-3.542 3.761-5.81 0-2.682-1.122-4.597-3.19-5.609zm-2.354 8.442c-.512.264-1.212.385-2.039.385h-.886v-6.367h.827c.947 0 1.645.12 2.187.445.946.587 1.379 1.59 1.379 2.713 0 1.356-.454 2.359-1.459 2.835l-.009-.01zm12.184-9.273L38.196 65.5h4.049l1.754-4.747h6.43l1.843 4.747h4.215l-7.722-19.447h-3.191zm-.454 11.45l1.142-3.25c.513-1.416.799-2.248.947-2.925h.058c.257.97.543 1.932.858 2.885l1.122 3.28h-4.136l.009.01zm22.615-.77v-.06c2.127-.678 3.674-2.45 3.674-4.991 0-2.065-.828-3.928-3.014-4.899-1.005-.475-2.266-.74-3.96-.74h-5.654V65.49h3.93v-7.35h1.438c.464.12 1.124.859 2.07 2.681l2.5 4.658h4.502l-3.063-5.578c-1.005-1.802-1.842-2.865-2.413-3.189l-.01.02zm-1.665-2.267c-.482.263-1.033.415-1.89.415h-1.47v-5.547h1.49c.865 0 1.408.141 1.84.414.838.446 1.291 1.327 1.291 2.36 0 1.092-.522 1.892-1.26 2.358zm46.746-4.99h5.506V65.5h3.94V49.475h4.963l1.035-3.422h-15.444v3.422zm-2.985 0l1.035-3.423H99.933V65.5h10.904v-3.422h-6.975v-4.717h5.999v-3.4h-5.999v-4.486h5.969zm-30.119-3.423h-3.93V65.5h3.93V46.053zm2.56 3.422h5.507V65.5h3.94V49.475h4.963l1.035-3.422H82.273v3.422zm104.346 6.196l7.87-9.618h-2.521l-7.181 8.92h-.059v-8.92H182.6V65.5h2.127v-8.878h.059l7.545 8.878H195l-8.382-9.829zm-48.193-.405v-.061c1.556-.678 2.501-2.248 2.501-4.222 0-2.652-1.772-4.93-5.801-4.93h-4.393V65.5h4.944c4.186 0 6.433-2.237 6.433-5.517 0-2.449-1.557-4.252-3.674-4.717h-.01zm-5.565-7.37h2.156c2.699 0 3.782 1.386 3.782 3.33 0 2.156-1.348 3.422-3.87 3.422h-2.068v-6.753zm2.816 15.782h-2.816V56.48h3.072c2.414 0 3.989 1.386 3.989 3.573 0 2.592-1.694 3.624-4.245 3.624zm40.177-5.264c0 1.529 0 2.389.059 3.422h-.059a133.875 133.875 0 00-2.759-3.928l-8.726-11.865h-2.039V65.49h2.128V52.745c0-1.529-.029-2.359-.089-3.331h.06a88.77 88.77 0 002.669 3.746l9.061 12.33h1.782V46.043h-2.097v12.362l.01.009zm-24.88-12.36L143.792 65.5h2.236l1.862-5.223h7.603l1.872 5.223h2.305l-7.24-19.447h-1.457zm3.851 12.39h-6.264l1.98-5.607c.6-1.711.915-2.633 1.152-3.362h.06c.226.74.511 1.65 1.112 3.36l1.95 5.609h.01z" fill="#F44920"/></g></g><defs><clipPath id="clip0_320_504"><path fill="#fff" transform="translate(0 .5)" d="M0 0h195v65H0z"/></clipPath></defs></svg>