<svg width="228" height="56" fill="none" xmlns="http://www.w3.org/2000/svg"><g clip-path="url(#clip0_320_474)" fill="#F44920"><path d="M196.3.335c-11.845 0-21.599 9.66-21.599 21.78 0 11.945 9.58 21.782 21.599 21.782 11.844 0 21.598-9.661 21.598-21.781S208.144.335 196.3.335zm16.721 9.66c-1.045.704-2.265 1.406-3.484 2.109-.697-1.405-1.567-2.81-2.613-4.04.871-.527 1.742-1.23 2.439-1.757 1.568.878 2.787 2.284 3.658 3.689zm-9.058-7.2a19.48 19.48 0 014.877 2.81c-.696.702-1.567 1.23-2.438 1.756-1.045-1.23-2.264-2.283-3.484-3.337.349-.527.697-.879 1.045-1.23zm1.742 4.917c-1.219.703-2.438 1.054-3.658 1.581-.522-1.23-1.045-2.459-1.741-3.513.696-.351 1.393-.702 1.916-1.23 1.219.879 2.438 1.933 3.483 3.162zm-2.612-5.27c-.349.352-.697.703-.871 1.055-1.22-.703-2.265-1.406-3.658-1.932 1.568 0 3.135.35 4.529.878zm-1.568 1.582c-.523.351-1.045.702-1.568.878-.696-1.054-1.393-1.932-2.09-2.986 1.219.527 2.439 1.23 3.658 2.108zm-4.877-1.933c.871.879 1.568 1.933 2.264 3.162-.696.176-1.393.352-2.264.352V2.09zm0 4.392c.871 0 1.916-.176 2.787-.527.697 1.054 1.219 2.283 1.742 3.513-1.394.351-2.961.527-4.529.703v-3.69zm-.871-4.392v3.514c-.697 0-1.393-.176-2.264-.352.871-1.054 1.567-2.108 2.264-3.162zm-2.961 2.81c-.523-.175-1.219-.526-1.568-.877 1.22-.703 2.439-1.406 3.658-1.933-.871.879-1.567 1.757-2.09 2.81zm1.219-3.512c-1.219.527-2.438 1.23-3.657 1.932-.349-.351-.697-.703-.871-1.054 1.393-.351 2.961-.702 4.528-.878zm14.805 37.238c-2.786-1.58-2.961-3.864-2.786-4.567.174-.878.696-.527 1.045-.527 1.916 0 3.832-.527 6.27-3.162 2.787-2.81 3.658-9.133-.697-13.173-4.528-4.392-9.405-3.69-12.54.35-.697.88-2.265 1.406-3.484 1.406-2.09 0-.697 1.581-.697 1.932 0 .352-.348.527-.522.527-.697-.175-.349.878-.349 1.054 0 .176-.348.527-.348.527-.871 0-.697.703-.523 1.054 0 .176 0 .527-.348.703-.348.175-.522.878-.522 1.405 0 .878.87 1.58 2.264 2.635 1.393 1.054 1.567 2.107 1.567 2.81 0 .703.175 1.932.349 2.635.348.878.348 2.635-1.568 2.635-2.438.175-6.619 1.932-6.967 2.107-1.393.527-3.135.703-4.529.352-.696-.527-1.393-1.054-2.09-1.757-.348-.878.174-1.932.697-2.635.871.879 1.916.703 2.613.703.696 0 3.832-.527 4.354-.703.523-.175.697-.175.871 0 1.219.527 2.961.527 3.658-1.756.696-2.46-.871-1.757-1.219-1.58-.175.175-.523 0-.349-.177.349-.527-.174-.527-.348-.527-.697 0-1.568.703-1.742.879-.348.175-.523.175-.697.175-.871-.527-3.483.176-4.354-1.23 0-.35-.697-6.147-1.045-7.2 0-.177-.174-.528.174-.88.697-1.053 2.438 0 3.484 0 1.219 0 1.393-.526 1.741-.877.349-.352.523-.176.697-.352.174-.175 0-.351 0-.527 0-.175.174 0 .348-.175.175-.176 0-.527 0-.703.349-.527 1.045-.176.697-1.23-.174-.702.174-1.405.523-1.756.522-.703 2.787-3.864-1.045-7.202-3.658-3.162-7.49-2.81-9.929-.175-2.438 2.634-1.219 6.499-1.045 7.553.174 1.053-.522 1.932-1.393 2.283-.697.351-2.264 1.405-3.31 2.284.175-8.432 5.226-15.81 12.89-18.795.348.351.696.878 1.045 1.23-.871.702-2.787 2.283-2.787 2.283s.174 0 .522.175c.175 0 .523.176.523.176s1.568-1.405 2.439-1.932c.522.527 1.219.878 1.915 1.23-.348.702-1.393 2.459-1.393 2.459s.174.175.348.175c.175.176.349.176.349.176s1.045-1.932 1.393-2.635a6.94 6.94 0 002.613.527v3.513c-.523 0-1.742 0-2.264-.175h-.349l.174.35c.175.176.175.352.349.528h2.09v6.499h.871v-1.581c1.393 0 2.438-.176 3.658-.351l1.219-1.054h-.697c-1.393.175-2.613.351-3.658.351h-.522v-4.04c1.567 0 3.309-.176 4.877-.703l1.219 3.69.871-.352-1.219-3.689c1.393-.351 2.612-1.054 3.832-1.58 1.045 1.229 1.916 2.634 2.612 4.04-.696.35-1.742.702-1.742.702.871.176 1.568.351 1.568.351s.348-.175.523-.175c0 .175.174.527.174.527l1.219.526-.174-.35s-.348-.88-.523-1.055c1.22-.527 2.439-1.23 3.658-2.107 2.264 3.337 3.309 7.377 3.309 11.417.349 6.675-2.961 12.647-7.838 16.511zM172.785 6.132l-.348.35c-1.219 1.055-4.18 4.04-3.658 7.378v.176l.174.703.349-.352c1.742-1.58 3.135-4.391 3.658-7.553l.174-.878-.349.176zm-5.922 5.62l-.174.352a17.88 17.88 0 00-.697 3.161c-.348 2.108-.174 5.27 1.568 7.553l.174.352.174.351.349-1.405c.348-2.46-.174-7.553-1.045-9.837l-.349-.702v.175zm-2.09 8.783v.351c-.174 2.108 0 7.553 4.355 10.54l.522.35v-.702c0-2.108-2.438-8.256-4.18-10.363l-.523-.703-.174.527zm.697 9.661v.351c.696 3.162 3.483 8.08 8.012 9.661l.697.176-.175-.703c-.87-2.283-5.225-7.729-8.012-9.485l-.522-.351v.35zm9.231-19.322l-.522.176c-3.31 2.108-4.877 4.567-4.877 7.729v.702l.522-.351c1.742-1.581 4.181-5.445 4.703-7.553l.174-.879v.176zm-2.09 6.675l-.174.351c-.871.879-3.658 3.865-3.484 7.553 0 .527.175 1.23.349 1.757l.174.527.348-.527c1.394-1.932 3.135-6.85 2.961-9.134v-.703l-.174.176zm.174 6.499l-.174.351c-1.393 2.108-2.09 4.216-2.09 6.324 0 1.405.523 2.81 1.393 4.215l.349.527.174-.527c.522-1.23 1.045-4.918 1.045-7.904 0-1.054-.174-1.932-.348-2.459l-.174-.703-.175.176zm1.568 6.85l-.174.352c-.349 1.405-.697 2.635-.523 4.04 0 2.81 1.394 5.094 3.832 6.675l.348.175.175-.527v-.527c0-2.283-1.742-8.255-3.136-10.012l-.348-.527-.174.351zm-4.703 9.134l.174.352c1.742 2.986 4.877 7.026 10.625 5.972h.523l-.348-.351c-1.046-1.581-8.013-5.621-10.451-5.973l-.697-.175.174.175zm8.535 7.729l-.871.176.871.351c3.658 1.581 8.186 1.932 10.973 1.054 1.045-.351 1.568-.878 2.264-1.58 4.703.526 9.058 4.39 11.67 7.552l.175.176h.174c.348-.176.696-.527.871-.703l.174-.175-.174-.176c-2.613-3.513-6.793-5.621-6.967-5.797-3.832-1.756-10.451-3.161-19.16-.878z"/><path d="M178.359 37.925v.35c.523 3.514 1.916 8.08 7.838 7.554h.348l-.174-.351c-.348-1.581-5.748-6.148-7.664-7.378l-.522-.351.174.176zM219.465 5.78l.174.878c.523 3.162 1.916 5.973 3.658 7.553l.348.352.175-.703v-.175c.522-3.338-2.439-6.324-3.658-7.378l-.348-.351-.349-.176zm6.096 5.621l-.348.703c-.871 2.283-1.219 7.377-1.045 9.836l.348 1.405.175-.175.174-.352c1.916-2.283 1.916-5.27 1.567-7.553a14.588 14.588 0 00-.696-3.161l-.175-.352v-.35zm2.265 8.783l-.523.702c-1.741 2.284-4.18 8.256-4.18 10.364v.702l.523-.35c4.354-2.811 4.528-8.256 4.354-10.54v-.351l-.174-.527zm-.697 9.661l-.697.35c-2.786 1.757-7.141 7.203-8.012 9.486l-.174.703.697-.176c4.528-1.405 7.489-6.499 8.012-9.66v-.352l.174-.351zm-9.231-19.322l.174.878c.697 2.284 2.787 6.148 4.703 7.729l.522.351v-.703c.174-3.161-1.393-5.62-4.703-7.728l-.348-.176-.348-.351zm1.916 6.85v.703c-.175 2.283 1.741 7.377 2.961 9.134l.348.527.174-.527c.174-.703.349-1.23.349-1.757.174-3.688-2.613-6.674-3.484-7.553l-.174-.175-.174-.352zm-.175 6.324l-.174.702c-.174.527-.348 1.406-.348 2.46 0 2.986.348 6.674 1.045 7.904l.174.527.349-.527c.87-1.23 1.393-2.635 1.393-4.216 0-1.932-.697-4.215-2.09-6.323l-.174-.352-.175-.175zm-1.567 6.85l-.349.527c-1.393 1.757-3.135 7.729-3.135 10.012v.527l.174.527.349-.175c2.438-1.581 3.658-3.865 3.832-6.675 0-1.23-.174-2.635-.523-4.04l-.174-.352-.174-.35zm5.051 9.134l-.697.176c-2.438.351-9.405 4.391-10.45 5.972l-.349.351h.523c5.748 1.054 8.883-2.986 10.625-5.972l.174-.351.174-.176zm-27.694 8.959c-.174 0-4.355 2.283-6.967 5.796l-.175.176.175.175c.174.176.696.527.87.703h.175l.174-.176c2.612-3.162 6.967-7.202 11.67-7.553.696.703 1.393 1.23 2.264 1.581 2.613.878 7.316.527 10.973-1.054l.871-.351-.871-.176c-8.883-2.283-15.502-.878-19.159.878zm18.811-11.067l-.523.352c-1.916 1.23-7.141 5.796-7.664 7.377l-.174.351h.349c5.748.527 7.141-4.04 7.838-7.553v-.351l.174-.176zM67.233 2.443h7.315v6.675h-7.315V2.443zm.697 14.403h6.096v32.672H67.93V16.846zm-46.158 0h6.097v32.672h-5.922v-4.743h-.175c-2.438 4.04-6.618 5.797-11.147 5.797C3.832 50.572 0 45.302 0 38.802V16.847h6.096v19.322c0 5.621 1.22 9.837 7.142 9.837 2.438 0 5.922-1.23 7.14-4.743 1.22-2.986 1.22-6.85 1.22-7.729V16.846h.174zm18.289 4.743c2.264-4.04 6.619-5.797 9.928-5.797 2.265 0 12.193.527 12.193 11.066v22.484h-6.096V28.791c0-5.446-2.265-8.256-7.49-8.256 0 0-3.31-.176-5.922 2.46-.871.877-2.613 2.283-2.613 8.782v17.74h-6.096v-32.67h6.096v4.742zM99.63 27.21c-.348-4.04-2.264-6.85-6.619-6.85-5.748 0-8.012 5.093-8.012 12.646 0 7.553 2.264 12.647 8.012 12.647 4.007 0 6.445-2.634 6.793-7.377h6.097c-.523 7.377-5.922 11.769-13.064 11.769-10.276 0-14.457-7.378-14.457-16.863s4.703-17.39 14.98-17.39c6.793 0 11.844 4.392 12.192 11.418H99.63zm15.328 7.026c-.522 5.62 1.916 11.593 8.012 11.593 4.703 0 7.142-1.932 7.838-6.675h6.445c-1.045 7.378-6.619 11.066-14.283 11.066-10.276 0-14.457-7.377-14.457-16.862 0-9.486 4.703-17.39 14.98-17.39 9.58.176 14.108 6.323 14.108 15.282v2.986h-22.643zm16.373-4.216c.174-5.445-2.264-9.66-8.187-9.66-5.051 0-8.012 4.39-8.012 9.66h16.199zm13.237 19.146V21.062h-5.573v-4.216h5.573V9.82c.175-7.026 5.574-8.958 10.103-8.958 1.393 0 2.961.351 4.354.703v5.093c-1.045 0-2.09-.175-3.135-.175-3.484 0-5.4.878-5.225 4.391v5.972h7.489v4.216h-7.489v28.104h-6.097z"/></g><defs><clipPath id="clip0_320_474"><path fill="#fff" transform="translate(0 .335)" d="M0 0h228v55.331H0z"/></clipPath></defs></svg>