<svg width="195" height="66" viewBox="0 0 195 66" fill="none" xmlns="http://www.w3.org/2000/svg">
<g id="Frame" clip-path="url(#clip0_320_504)">
<g id="Clip path group">
<mask id="mask0_320_504" style="mask-type:luminance" maskUnits="userSpaceOnUse" x="0" y="0" width="195" height="66">
<g id="a">
<path id="Vector" d="M0 0.5H195V65.5H0V0.5Z" fill="white"/>
</g>
</mask>
<g mask="url(#mask0_320_504)">
<g id="Group">
<path id="Vector_2" d="M24.3969 29.3205C16.6662 29.3205 10.3719 22.8519 10.3719 14.9045C10.3719 6.95937 16.665 0.5 24.3969 0.5C32.1288 0.5 38.4231 6.96866 38.4231 14.9161C38.4231 22.8612 32.1288 29.3298 24.3969 29.3298V29.3205ZM24.3969 8.36616C20.8812 8.36616 18.0346 11.3016 18.0346 14.9056C18.0346 18.5085 20.8904 21.4439 24.3969 21.4439C27.9046 21.4439 30.7604 18.5085 30.7604 14.9056C30.7604 11.3016 27.9035 8.36616 24.3969 8.36616ZM11.9965 25.4635H0V65.5H11.9965V25.4635ZM35.7438 46.8833C34.6304 46.2971 33.1938 46.0534 31.4688 46.0534H26.535V65.5H30.4638V58.9803H31.1238C32.7888 58.9803 34.1088 58.7179 35.1727 58.3024C37.98 57.1788 38.9342 54.7599 38.9342 52.4919C38.9342 49.8095 37.8115 47.8954 35.7438 46.8833ZM33.39 55.3263C32.8777 55.5898 32.1785 55.7105 31.3512 55.7105H30.465V49.344H31.2923C32.2385 49.344 32.9365 49.4647 33.4788 49.7886C34.425 50.3759 34.8577 51.3787 34.8577 52.5023C34.8577 53.858 34.4042 54.8609 33.3992 55.3368L33.39 55.3263ZM45.5735 46.0534L38.1958 65.5H42.2446L43.9985 60.7527H50.4288L52.2715 65.5H56.4865L48.765 46.0534H45.5735ZM45.12 57.5027L46.2623 54.2527C46.7746 52.8366 47.0608 52.0055 47.2085 51.3277H47.2673C47.5242 52.298 47.8101 53.2602 48.1246 54.2132L49.2473 57.4922H45.1108L45.12 57.5027ZM67.7354 56.7331V56.6728C69.8619 55.9949 71.4092 54.2237 71.4092 51.6817C71.4092 49.6168 70.5808 47.7538 68.3954 46.7835C67.3904 46.3076 66.1292 46.0429 64.4354 46.0429H58.7815V65.4896H62.7115V58.1411H64.1492C64.6131 58.2618 65.2731 59 66.2181 60.8223L68.7196 65.4803H73.2208L70.1585 59.9019C69.1535 58.1004 68.3158 57.0372 67.7446 56.7134L67.7354 56.7331ZM66.0704 54.4662C65.5881 54.7286 65.0365 54.8806 64.1792 54.8806H62.7115V49.3336H64.2C65.0654 49.3336 65.6077 49.4752 66.0404 49.7479C66.8781 50.1937 67.3315 51.0746 67.3315 52.1077C67.3315 53.1999 66.8088 53.9996 66.0704 54.4662ZM112.816 49.4752H118.322V65.5H122.262V49.4752H127.225L128.26 46.0534H112.816V49.4752ZM109.831 49.4752L110.866 46.0534H99.9335V65.5H110.837V62.0782H103.862V57.3611H109.861V53.9602H103.862V49.4752H109.831ZM79.7123 46.0534H75.7823V65.5H79.7123V46.0534ZM82.2727 49.4752H87.7788V65.5H91.7181V49.4752H96.6819L97.7169 46.0534H82.2727V49.4752ZM186.618 55.6711L194.488 46.0534H191.967L184.786 54.9723H184.727V46.0534H182.6V65.5H184.727V56.6217H184.786L192.331 65.5H195L186.618 55.6711ZM138.425 55.266V55.2045C139.981 54.5266 140.926 52.9573 140.926 50.9829C140.926 48.3307 139.154 46.0534 135.125 46.0534H130.732V65.5H135.676C139.862 65.5 142.109 63.2633 142.109 59.9831C142.109 57.534 140.552 55.7314 138.435 55.266H138.425ZM132.86 47.8954H135.016C137.715 47.8954 138.798 49.2825 138.798 51.2267C138.798 53.3821 137.45 54.6485 134.928 54.6485H132.86V47.8954ZM135.676 63.6777H132.86V56.4812H135.932C138.346 56.4812 139.921 57.8671 139.921 60.0539C139.921 62.6458 138.227 63.6777 135.676 63.6777ZM175.853 58.4138C175.853 59.9425 175.853 60.8026 175.912 61.8356H175.853C174.957 60.51 174.037 59.2005 173.094 57.9078L164.368 46.0429H162.329V65.4896H164.457V52.7449C164.457 51.2163 164.428 50.3863 164.368 49.4137H164.428C165.088 50.3863 165.944 51.6306 167.097 53.1604L176.158 65.4896H177.94V46.0429H175.843V58.4046L175.853 58.4138ZM150.973 46.0534L143.792 65.5H146.028L147.89 60.2768H155.493L157.365 65.5H159.67L152.43 46.0534H150.973ZM154.824 58.444H148.56L150.54 52.8366C151.14 51.1257 151.455 50.2041 151.692 49.4752H151.752C151.978 50.2146 152.263 51.1257 152.864 52.8354L154.814 58.444H154.824Z" fill="#F44920"/>
</g>
</g>
</g>
</g>
<defs>
<clipPath id="clip0_320_504">
<rect width="195" height="65" fill="white" transform="translate(0 0.5)"/>
</clipPath>
</defs>
</svg>
