<svg width="346" height="232" viewBox="0 0 346 232" fill="none" xmlns="http://www.w3.org/2000/svg">
<g clip-path="url(#clip0_893_13)">
<path d="M302.979 52.4153V119.591C302.979 122.419 302.789 124.802 302.189 126.788C301.604 128.758 300.466 130.411 298.696 131.3C297.526 131.904 296.151 132.158 294.571 132.158C292.99 132.158 291.599 131.872 290.43 131.237C289.26 130.617 288.344 129.632 287.727 128.472C286.479 126.137 286.178 123.086 286.178 119.321L300.956 0H260.78L242.02 125.882C242.02 140.516 244.406 151.208 249.005 158.088C253.62 164.952 261.523 168.797 269.899 170.385C290.003 174.707 302.963 167.033 302.963 167.033V232H346V52.4153H302.963H302.979Z" fill="#F44920"/>
<path d="M60.9435 52.4153V119.591C60.9435 122.419 60.7539 124.802 60.1533 126.788C59.5685 128.758 58.4306 130.411 56.6604 131.3C55.4909 131.904 54.1158 132.158 52.5354 132.158C50.9549 132.158 49.564 131.872 48.3945 131.237C47.2249 130.617 46.3082 129.632 45.6919 128.472C44.4433 126.137 44.143 123.086 44.143 119.321L58.8257 0H18.9658L0 125.882C0 140.516 2.38653 151.208 6.98575 158.088C11.6008 164.952 19.5032 168.797 27.8798 170.385C47.9836 174.707 60.9435 167.033 60.9435 167.033V232H103.98V52.4153H60.9435Z" fill="#F44920"/>
<path d="M221.156 63.5053C216.952 56.7369 210.235 52.4153 198.934 52.3677C191.554 52.3677 157.589 52.3677 150.224 52.3677C138.923 52.3995 132.222 56.7369 128.002 63.5053C123.814 70.2896 122.312 79.7272 122.312 89.6732V189.801C122.312 204.355 124.683 215 129.267 221.847C133.85 228.679 140.52 231.968 149.955 232C158.6 232 190.574 232 199.219 232C208.654 231.968 215.324 228.679 219.908 221.847C224.491 215 226.862 204.355 226.862 189.801V89.6732C226.862 79.7272 225.36 70.2896 221.172 63.5053H221.156ZM182.956 183.271C182.956 187.02 182.64 190.055 181.407 192.375C180.79 193.535 179.874 194.504 178.72 195.123C177.55 195.743 176.175 196.029 174.595 196.029C173.014 196.029 171.639 195.743 170.47 195.123C169.3 194.504 168.399 193.535 167.783 192.375C166.55 190.039 166.25 187.02 166.234 183.271V100.827C166.234 98.0146 166.424 95.6155 167.024 93.5976C167.609 91.5957 168.716 89.9116 170.486 88.9742C171.655 88.3545 173.03 88.0685 174.611 88.0685C176.191 88.0685 177.566 88.3545 178.736 88.9742C180.506 89.9116 181.612 91.5957 182.197 93.5976C182.798 95.6155 182.972 98.0146 182.987 100.827V183.271H182.956Z" fill="#F44920"/>
</g>
<defs>
<clipPath id="clip0_893_13">
<rect width="346" height="232" fill="white"/>
</clipPath>
</defs>
</svg>
