<svg width="128" height="128" viewBox="0 0 128 128" fill="none" xmlns="http://www.w3.org/2000/svg">
<g id="a" clip-path="url(#clip0_893_3)">
<path id="Vector" d="M64 128C28.7166 128 0 99.2987 0 64C0 28.7013 28.7166 0 64 0C99.2834 0 128 28.7166 128 64C128 99.2834 99.2834 128 64 128ZM64 7.14853C32.6506 7.14853 7.14853 32.6506 7.14853 64C7.14853 95.3494 32.6506 120.851 64 120.851C95.3494 120.851 120.851 95.3494 120.851 64C120.851 32.6506 95.3494 7.14853 64 7.14853Z" fill="#F44920"/>
<path id="Vector_2" d="M12.9042 63.2499C12.9042 40.2276 29.4361 21.9048 53.0707 11.8325C24.9358 20.9863 3.58203 38.9418 3.58203 63.9999C3.58203 89.0581 22.9764 112.892 55.3055 117.04C24.5837 104.932 12.9042 86.2568 12.9042 63.2346V63.2499Z" fill="#F44920"/>
<path id="Vector_3" d="M46.6567 91.4155C49.7182 84.1139 56.9892 78.1746 65.1174 78.2052C73.2456 78.2358 80.4706 84.3129 83.4709 91.6298C84.0525 93.0534 85.3843 94.0789 86.9915 93.635C88.3386 93.2523 89.5785 91.5532 88.9968 90.1143C85.0322 80.4095 76.0162 72.5415 65.1327 72.4956C54.2491 72.4344 45.1872 80.2564 41.1461 89.9154C40.5491 91.3542 41.789 93.0534 43.1513 93.436C44.7892 93.9106 46.075 92.8544 46.672 91.4308L46.6567 91.4155Z" fill="#F44920"/>
<g id="Group">
<path id="Vector_4" d="M28.1948 63.1428C27.6131 63.1428 27.0161 62.9438 26.5416 62.5305C25.4854 61.612 25.3629 60.0201 26.2814 58.9639L40.2264 42.8299C41.1448 41.7737 42.7368 41.6513 43.793 42.5697C44.8492 43.4882 44.9716 45.0801 44.0532 46.1363L30.1082 62.2703C29.6031 62.8519 28.8989 63.1428 28.1948 63.1428Z" fill="#F44920"/>
<path id="Vector_5" d="M43.2428 62.0407C42.6611 62.0407 42.0641 61.8418 41.5896 61.4285L25.4557 47.4835C24.3995 46.565 24.277 44.9731 25.1954 43.9169C26.1139 42.8606 27.7059 42.7382 28.7621 43.6566L44.896 57.6016C45.9522 58.5201 46.0747 60.112 45.1562 61.1682C44.6511 61.7499 43.9469 62.0407 43.2428 62.0407Z" fill="#F44920"/>
</g>
<g id="Group_2">
<path id="Vector_6" d="M87.7104 63.1428C87.1287 63.1428 86.5318 62.9438 86.0572 62.5305C85.001 61.612 84.8786 60.0201 85.797 58.9639L99.742 42.8299C100.645 41.7737 102.252 41.6513 103.309 42.5697C104.365 43.4882 104.487 45.0801 103.569 46.1363L89.6238 62.2703C89.1187 62.8519 88.4146 63.1428 87.7104 63.1428Z" fill="#F44920"/>
<path id="Vector_7" d="M102.742 62.0407C102.161 62.0407 101.564 61.8418 101.089 61.4285L84.94 47.4835C83.8838 46.565 83.7614 44.9731 84.6798 43.9169C85.5983 42.8606 87.1902 42.7382 88.2464 43.6566L104.38 57.6016C105.437 58.5201 105.559 60.112 104.641 61.1682C104.135 61.7499 103.431 62.0407 102.727 62.0407H102.742Z" fill="#F44920"/>
</g>
</g>
<defs>
<clipPath id="clip0_893_3">
<rect width="128" height="128" fill="white"/>
</clipPath>
</defs>
</svg>
