<svg width="32" height="32" viewBox="0 0 32 32" fill="none" xmlns="http://www.w3.org/2000/svg">
<circle cx="16" cy="16" r="15.5" fill="white" stroke="white"/>
<g clip-path="url(#clip0_344_218)">
<path d="M14.68 23.92C10.88 23.24 8 19.96 8 16C8 11.6 11.6 8 16 8C20.4 8 24 11.6 24 16C24 19.96 21.12 23.24 17.32 23.92L16.88 23.56H15.12L14.68 23.92Z" fill="#F44920"/>
<path d="M19.12 18.2401L19.48 16.0001H17.36V14.4401C17.36 13.8001 17.6 13.3201 18.56 13.3201H19.6V11.2801C19.04 11.2001 18.4 11.1201 17.84 11.1201C16 11.1201 14.72 12.2401 14.72 14.2401V16.0001H12.72V18.2401H14.72V23.8801C15.16 23.9601 15.6 24.0001 16.04 24.0001C16.48 24.0001 16.92 23.9601 17.36 23.8801V18.2401H19.12Z" fill="white"/>
</g>
<defs>
<clipPath id="clip0_344_218">
<rect width="16" height="16" fill="white" transform="translate(8 8)"/>
</clipPath>
</defs>
</svg>
