<svg width="32" height="32" viewBox="0 0 32 32" fill="none" xmlns="http://www.w3.org/2000/svg">
<g id="attach-svgrepo-com (2) 1">
<path id="Vector" d="M21.4907 27.2017H21.4183C19.6408 27.1862 17.9411 26.471 16.6873 25.211L5.33407 13.856C4.45226 12.9722 3.95703 11.7748 3.95703 10.5263C3.95703 9.27788 4.45226 8.08041 5.33407 7.19664L5.44355 7.08717C6.32731 6.20536 7.52478 5.71013 8.77323 5.71013C10.0217 5.71013 11.2192 6.20536 12.1029 7.08717L23.6482 18.6341C24.2016 19.1876 24.5125 19.9382 24.5125 20.7209C24.5125 21.5035 24.2016 22.2542 23.6482 22.8076C23.0947 23.361 22.3441 23.6719 21.5614 23.6719C20.7788 23.6719 20.0281 23.361 19.4747 22.8076L11.6617 14.9945C11.4866 14.8194 11.3882 14.582 11.3882 14.3343C11.3882 14.0867 11.4866 13.8492 11.6617 13.6741C11.8368 13.499 12.0742 13.4006 12.3219 13.4006C12.5695 13.4006 12.807 13.499 12.9821 13.6741L20.7951 21.4889C20.896 21.5895 21.0157 21.6693 21.1474 21.7236C21.279 21.778 21.4202 21.8059 21.5626 21.8058C21.7051 21.8056 21.8462 21.7774 21.9777 21.7227C22.1093 21.6681 22.2288 21.588 22.3294 21.4872C22.4301 21.3863 22.5099 21.2666 22.5642 21.1349C22.6186 21.0032 22.6465 20.8621 22.6464 20.7197C22.6462 20.5772 22.618 20.4361 22.5633 20.3046C22.5087 20.173 22.4286 20.0535 22.3278 19.9529L10.7842 8.40591C10.2498 7.87582 9.52761 7.57838 8.77492 7.57838C8.02222 7.57838 7.30003 7.87582 6.76565 8.40591L6.65449 8.51706C6.12441 9.05144 5.82697 9.77363 5.82697 10.5263C5.82697 11.279 6.12441 12.0012 6.65449 12.5356L18.0094 23.8905C18.9183 24.805 20.151 25.3242 21.4402 25.3356H21.4924C22.1137 25.3407 22.7297 25.2211 23.304 24.9841C23.8783 24.747 24.3992 24.3972 24.836 23.9554C25.2728 23.5136 25.6166 22.9887 25.8471 22.4117C26.0776 21.8347 26.19 21.2174 26.1779 20.5962C26.1661 19.3071 25.647 18.0745 24.7328 17.1655L12.8928 5.32548C12.8062 5.23878 12.7376 5.13588 12.6907 5.02264C12.6439 4.9094 12.6199 4.78805 12.6199 4.66552C12.62 4.54299 12.6442 4.42167 12.6912 4.30849C12.7382 4.19531 12.807 4.09249 12.8937 4.0059C12.9804 3.91932 13.0833 3.85065 13.1965 3.80383C13.3097 3.75701 13.4311 3.73295 13.5536 3.73303C13.6762 3.73311 13.7975 3.75732 13.9106 3.80429C14.0238 3.85125 14.1266 3.92005 14.2132 4.00675L26.0532 15.8467C27.3142 17.1 28.0301 18.7999 28.0457 20.5777C28.0603 21.4455 27.9013 22.3075 27.5781 23.113C27.255 23.9185 26.7741 24.6513 26.1638 25.2684C25.5534 25.8854 24.826 26.3743 24.024 26.7063C23.2221 27.0383 22.362 27.2068 21.4941 27.2017H21.4907Z" fill="#323232"/>
</g>
</svg>
