<svg width="32" height="32" viewBox="0 0 32 32" fill="none" xmlns="http://www.w3.org/2000/svg">
<g id="Group 7">
<circle id="Ellipse 6" cx="16" cy="16" r="15.5" fill="white" stroke="white"/>
<path id="Vector" d="M19.5796 17.0901C19.8576 17.1938 21.3403 17.9201 21.6415 18.07C21.9427 18.2199 22.1454 18.2948 22.2207 18.4216C22.296 18.5484 22.296 19.1479 22.0469 19.8511C21.7921 20.5544 20.5874 21.1942 20.0082 21.2807C19.4869 21.3556 18.8325 21.3902 18.1085 21.1596C17.6683 21.0213 17.1065 20.8368 16.3883 20.5256C13.3592 19.2228 11.3842 16.1908 11.2337 15.9891C11.0831 15.7873 10 14.3636 10 12.8821C10 11.4007 10.7761 10.6744 11.0541 10.3747C11.3321 10.0749 11.6565 10 11.8592 10C12.0619 10 12.2646 10 12.4383 10.0115C12.6237 10.0173 12.8727 9.93659 13.116 10.5246C13.3708 11.124 13.9731 12.6055 14.0484 12.7553C14.1237 12.9052 14.1701 13.0781 14.0716 13.2799C13.9731 13.4816 13.921 13.6084 13.7704 13.7814C13.6198 13.9543 13.4519 14.1733 13.3187 14.3059C13.1681 14.4558 13.0117 14.6172 13.1855 14.9169C13.365 15.2167 13.9674 16.2024 14.8651 16.9978C16.0176 18.0239 16.9907 18.3409 17.2918 18.4908C17.593 18.6407 17.7726 18.6176 17.9463 18.4158C18.1201 18.2199 18.6992 17.5397 18.902 17.2399C19.0989 16.9402 19.3016 16.9921 19.5796 17.0901Z" fill="#F44920"/>
</g>
</svg>
