<svg width="32" height="32" viewBox="0 0 32 32" fill="none" xmlns="http://www.w3.org/2000/svg">
<g id="Group 6">
<circle id="Ellipse 7" cx="16" cy="16" r="15.5" fill="white" stroke="white"/>
<path id="Vector" d="M11.4167 16.6003L8.27826 15.5902C8.27826 15.5902 7.90318 15.4399 8.02396 15.099C8.04882 15.0287 8.09898 14.9689 8.24901 14.8661C8.94441 14.3873 21.1203 10.0644 21.1203 10.0644C21.1203 10.0644 21.4641 9.95001 21.6669 10.0261C21.717 10.0415 21.7622 10.0697 21.7977 10.1079C21.8331 10.1461 21.8577 10.193 21.8689 10.2437C21.8908 10.3332 21.8999 10.4253 21.8961 10.5173C21.8951 10.5969 21.8854 10.6707 21.878 10.7864C21.8038 11.9683 19.5846 20.7891 19.5846 20.7891C19.5846 20.7891 19.4519 21.3053 18.9761 21.323C18.8592 21.3267 18.7428 21.3072 18.6337 21.2655C18.5246 21.2238 18.4251 21.1608 18.3412 21.0804C17.4077 20.2872 14.1811 18.1453 13.4681 17.6742C13.4521 17.6634 13.4385 17.6493 13.4284 17.6328C13.4183 17.6164 13.4119 17.598 13.4096 17.5789C13.3997 17.5293 13.4543 17.4678 13.4543 17.4678C13.4543 17.4678 19.0726 12.5348 19.2221 12.017C19.2337 11.9769 19.1899 11.9571 19.1312 11.9747C18.7581 12.1103 12.2893 16.1454 11.5753 16.5908C11.5239 16.6061 11.4696 16.6094 11.4167 16.6003Z" fill="#F44920"/>
</g>
</svg>
