<svg width="17" height="17" viewBox="0 0 17 17" fill="none" xmlns="http://www.w3.org/2000/svg">
<circle cx="8.5" cy="8.5" r="8" fill="white" stroke="#F5222D"/>
<path d="M9.13379 4.89062L8.97266 9.82715H7.80078L7.63477 4.89062H9.13379ZM7.5957 11.3555C7.5957 11.1471 7.66732 10.9746 7.81055 10.8379C7.95703 10.6979 8.14909 10.6279 8.38672 10.6279C8.6276 10.6279 8.81966 10.6979 8.96289 10.8379C9.10612 10.9746 9.17773 11.1471 9.17773 11.3555C9.17773 11.5573 9.10612 11.7282 8.96289 11.8682C8.81966 12.0081 8.6276 12.0781 8.38672 12.0781C8.14909 12.0781 7.95703 12.0081 7.81055 11.8682C7.66732 11.7282 7.5957 11.5573 7.5957 11.3555Z" fill="#F5222D"/>
</svg>
