<svg width="32" height="32" viewBox="0 0 32 32" fill="none" xmlns="http://www.w3.org/2000/svg">
<g id="Group 33">
<g id="Group 7">
<circle id="Ellipse 7" cx="16" cy="16" r="15.5" fill="white" stroke="white"/>
</g>
<g id="Group">
<path id="Vector" d="M23.3919 12.6867C23.2141 12.0224 22.692 11.5004 22.0278 11.3226C20.8251 11 16 11 16 11C16 11 11.175 11 9.97219 11.3226C9.30794 11.5004 8.78594 12.0224 8.60812 12.6867C8.28552 13.8894 8.28552 16.4004 8.28552 16.4004C8.28552 16.4004 8.28552 18.9114 8.60812 20.1141C8.78594 20.7784 9.30794 21.3004 9.97219 21.4782C11.175 21.8008 16 21.8008 16 21.8008C16 21.8008 20.8251 21.8008 22.0278 21.4782C22.692 21.3004 23.2141 20.7784 23.3919 20.1141C23.7145 18.9114 23.7145 16.4004 23.7145 16.4004C23.7145 16.4004 23.7132 13.8894 23.3919 12.6867Z" fill="#F44920"/>
<path id="Vector_2" d="M14.4556 18.7146L18.464 16.4005L14.4556 14.0864V18.7146Z" fill="white"/>
</g>
</g>
</svg>
