<svg width="192" height="192" viewBox="0 0 192 192" fill="none" xmlns="http://www.w3.org/2000/svg">
<g clip-path="url(#clip0_2562_4530)">
<path d="M96 192C149.019 192 192 149.019 192 96C192 42.9807 149.019 0 96 0C42.9807 0 0 42.9807 0 96C0 149.019 42.9807 192 96 192Z" fill="#F44920"/>
<path d="M56.3283 120.84C54.3373 125.044 51.244 129.259 44.6636 129.259C37.487 129.259 34 124.05 34 113.236V76.3751C34 68.9623 36.1935 62.1484 44.7648 62.1484C50.3441 62.1484 53.1449 64.7475 56.3283 68.2617V63.1542H73.0773V127.157C73.0773 142.785 70.5914 148.288 56.1258 148.288H35.7885V133.768H51.5364C54.3261 133.768 56.317 133.462 56.317 127.259V120.852L56.3283 120.84ZM53.7411 115.032C55.8334 115.032 56.3283 113.631 56.3283 110.93V80.3753C56.3283 77.6746 55.8334 76.2734 53.7411 76.2734C51.6489 76.2734 51.1539 77.7763 51.1539 80.4769V110.829C51.1539 113.529 51.6489 115.032 53.7411 115.032Z" fill="white"/>
<path d="M78.7355 48H95.4845V70.4304C97.4755 66.2269 100.569 62.0119 107.149 62.0119C114.326 62.0119 117.813 67.2213 117.813 78.0353V114.907C117.813 122.32 115.62 129.134 107.048 129.134C101.469 129.134 98.6679 126.535 95.4845 123.02V128.128H78.7355V48ZM98.0829 115.009C100.175 115.009 100.67 113.506 100.67 110.805V80.4534C100.67 77.7527 100.175 76.2498 98.0829 76.2498C95.9907 76.2498 95.4958 77.6511 95.4958 80.3518V110.896C95.4958 113.596 95.9907 114.997 98.0829 114.997V115.009Z" fill="white"/>
<path d="M161.997 109.427C161.997 121.044 156.114 129.259 141.952 129.259C131.48 129.259 122.413 124.75 122.413 110.727V104.964H139.657V110.331C139.657 113.631 139.961 115.236 142.155 115.236C144.348 115.236 144.843 113.631 144.843 110.331C144.843 107.732 144.64 106.128 138.96 102.218L132.278 97.6077C126.598 93.6979 122.312 89.4944 122.312 80.7821C122.312 70.4652 128.195 62.1484 142.357 62.1484C154.022 62.1484 161.794 67.6628 161.794 79.573V84.1834H144.64V79.9798C144.64 77.7763 144.235 76.1717 142.053 76.1717C139.871 76.1717 139.466 77.7763 139.466 79.9798C139.466 81.9798 139.86 83.4827 142.751 85.4942L152.121 92.0029C158.498 96.4099 161.985 100.613 161.985 109.427H161.997Z" fill="white"/>
</g>
<defs>
<clipPath id="clip0_2562_4530">
<rect width="192" height="192" fill="white"/>
</clipPath>
</defs>
</svg>
