<svg width="192" height="192" fill="none" xmlns="http://www.w3.org/2000/svg"><g clip-path="url(#clip0_2562_4530)"><path d="M96 192c53.019 0 96-42.981 96-96 0-53.02-42.981-96-96-96C42.98 0 0 42.98 0 96c0 53.019 42.98 96 96 96z" fill="#F44920"/><path d="M56.328 120.84c-1.99 4.204-5.084 8.419-11.664 8.419-7.177 0-10.664-5.209-10.664-16.023v-36.86c0-7.414 2.194-14.228 10.765-14.228 5.58 0 8.38 2.6 11.563 6.114v-5.108h16.75v64.003c0 15.628-2.487 21.131-16.952 21.131H35.789v-14.52h15.747c2.79 0 4.781-.306 4.781-6.509v-6.407l.011-.012zm-2.587-5.808c2.092 0 2.587-1.401 2.587-4.102V80.375c0-2.7-.495-4.102-2.587-4.102s-2.587 1.503-2.587 4.204v30.352c0 2.7.495 4.203 2.587 4.203zM78.736 48h16.748v22.43c1.992-4.203 5.085-8.418 11.665-8.418 7.177 0 10.664 5.21 10.664 16.023v36.872c0 7.413-2.193 14.227-10.765 14.227-5.579 0-8.38-2.599-11.564-6.114v5.108H78.736V48zm19.347 67.009c2.092 0 2.587-1.503 2.587-4.204V80.453c0-2.7-.495-4.203-2.587-4.203s-2.587 1.401-2.587 4.102v30.544c0 2.7.495 4.101 2.587 4.101v.012zm63.914-5.582c0 11.617-5.883 19.832-20.045 19.832-10.472 0-19.539-4.509-19.539-18.532v-5.763h17.244v5.367c0 3.3.304 4.905 2.498 4.905 2.193 0 2.688-1.605 2.688-4.905 0-2.599-.203-4.203-5.883-8.113l-6.682-4.61c-5.68-3.91-9.966-8.114-9.966-16.826 0-10.317 5.883-18.634 20.045-18.634 11.665 0 19.437 5.515 19.437 17.425v4.61H144.64V79.98c0-2.204-.405-3.808-2.587-3.808-2.182 0-2.587 1.604-2.587 3.808 0 2 .394 3.503 3.285 5.514l9.37 6.509c6.377 4.407 9.864 8.61 9.864 17.424h.012z" fill="#fff"/></g><defs><clipPath id="clip0_2562_4530"><path fill="#fff" d="M0 0h192v192H0z"/></clipPath></defs></svg>