<svg width="191" height="155" fill="none" xmlns="http://www.w3.org/2000/svg"><path d="M28.257 91.79c-2.518 5.297-6.43 10.608-14.755 10.608-9.077 0-13.488-6.564-13.488-20.192v-46.45c0-9.341 2.775-17.928 13.617-17.928 7.057 0 10.6 3.275 14.626 7.704v-6.436h21.186V99.75c0 19.693-3.144 26.628-21.442 26.628H2.276V108.08h19.92c3.529 0 6.047-.385 6.047-8.202v-8.074l.014-.014zm-3.272-7.32c2.646 0 3.272-1.765 3.272-5.169V40.797c0-3.403-.626-5.17-3.272-5.17-2.647 0-3.273 1.895-3.273 5.298v38.248c0 3.403.626 5.297 3.273 5.297zM56.6 0h21.186v28.266c2.518-5.297 6.431-10.609 14.755-10.609 9.077 0 13.488 6.565 13.488 20.192v46.465c0 9.341-2.774 17.928-13.616 17.928-7.058 0-10.6-3.276-14.627-7.704v6.436H56.6V0zm24.473 84.442c2.646 0 3.272-1.894 3.272-5.297V40.897c0-3.404-.626-5.298-3.272-5.298-2.647 0-3.273 1.766-3.273 5.17v38.49c0 3.403.626 5.169 3.273 5.169v.014zm80.844-7.035c0 14.639-7.441 24.991-25.354 24.991-13.247 0-24.715-5.681-24.715-23.353v-7.262h21.812v6.763c0 4.159.384 6.18 3.159 6.18 2.774 0 3.4-2.021 3.4-6.18 0-3.275-.256-5.297-7.441-10.224l-8.452-5.81c-7.185-4.926-12.606-10.224-12.606-21.203 0-13 7.442-23.48 25.355-23.48 14.755 0 24.586 6.948 24.586 21.957v5.81h-21.698v-5.297c0-2.777-.512-4.8-3.272-4.8s-3.273 2.023-3.273 4.8c0 2.52.498 4.414 4.155 6.949l11.852 8.202c8.067 5.553 12.478 10.85 12.478 21.957h.014zM56.6 138.055v-11.663h2.532v11.663H56.6zm12.592-11.663h2.461v11.663h-2.091l-5.279-7.277v7.277h-2.476v-11.663h2.277l5.108 7.12v-7.12zm16.405 11.663l-.81-2.222h-4.64l-.796 2.222h-2.66l4.566-11.663h2.377l4.71 11.663h-2.747zm-3.144-8.573l-1.523 4.158h3.045l-1.537-4.158h.015zm10.771 8.8c-1.352 0-2.448-.356-3.273-1.068-.825-.712-1.238-1.694-1.238-2.933h2.547c0 .271.057.527.156.74.1.214.242.385.427.527a2.308 2.308 0 001.366.399c.513 0 .954-.128 1.323-.37.37-.242.555-.584.555-.997a.861.861 0 00-.128-.47.868.868 0 00-.313-.327c-.114-.086-.299-.171-.54-.257-.242-.085-.441-.156-.612-.199-.17-.043-.413-.1-.754-.185-.27-.071-.47-.114-.598-.157a6.096 6.096 0 01-.583-.171 3.463 3.463 0 01-.598-.213c-.142-.057-.313-.143-.54-.257a2.459 2.459 0 01-.513-.327c-.128-.114-.256-.256-.412-.413a1.53 1.53 0 01-.342-.527 5.429 5.429 0 01-.199-.627 3.313 3.313 0 01-.085-.754c0-1.111.37-1.965 1.138-2.578.754-.612 1.778-.911 3.102-.911 1.323 0 2.347.328 3.087.997.74.669 1.11 1.58 1.11 2.748h-2.49c0-.47-.17-.84-.512-1.096-.342-.257-.754-.371-1.252-.371-.441 0-.825.1-1.153.285-.327.185-.484.456-.484.812 0 .171.043.313.129.441.085.128.184.228.284.314.1.085.285.17.512.242.228.085.427.142.584.185.156.042.398.099.725.171.356.085.626.156.797.213.17.057.427.128.768.242.328.114.598.228.769.342.185.114.398.256.64.442.242.185.427.384.555.598.128.213.242.469.327.783.1.299.142.641.142.997 0 .811-.199 1.509-.611 2.079a3.58 3.58 0 01-1.594 1.267c-.654.27-1.394.399-2.22.399v-.015zm10.301 0c-1.352 0-2.447-.356-3.273-1.068-.825-.712-1.238-1.694-1.238-2.933h2.547c0 .271.057.527.157.74.099.214.242.385.427.527a2.305 2.305 0 001.366.399c.512 0 .953-.128 1.323-.37s.555-.584.555-.997a.864.864 0 00-.128-.47.874.874 0 00-.313-.327c-.114-.086-.299-.171-.541-.257-.242-.085-.441-.156-.612-.199-.171-.043-.413-.1-.754-.185-.27-.071-.47-.114-.598-.157a6.087 6.087 0 01-.583-.171 3.494 3.494 0 01-.598-.213c-.142-.057-.313-.143-.54-.257a2.424 2.424 0 01-.512-.327c-.128-.114-.256-.256-.413-.413a1.528 1.528 0 01-.341-.527 5.41 5.41 0 01-.2-.627 3.313 3.313 0 01-.085-.754c0-1.111.37-1.965 1.138-2.578.754-.612 1.779-.911 3.102-.911s2.348.328 3.087.997c.74.669 1.11 1.58 1.11 2.748h-2.49c0-.47-.17-.84-.512-1.096-.341-.257-.754-.371-1.252-.371-.441 0-.825.1-1.152.285-.328.185-.484.456-.484.812a.76.76 0 00.128.441c.085.128.185.228.284.314.1.085.285.17.513.242a5.5 5.5 0 00.597.185c.157.042.399.099.726.171.356.085.626.156.797.213.17.057.426.128.768.242.327.114.598.228.768.342.185.114.399.256.641.442.241.185.426.384.554.598.129.213.242.469.328.783.099.299.142.641.142.997 0 .811-.199 1.509-.612 2.079a3.572 3.572 0 01-1.593 1.267c-.655.27-1.395.399-2.22.399l-.014-.015zm11.966.029c-1.779 0-3.259-.584-4.44-1.737-1.18-1.168-1.778-2.606-1.778-4.343 0-1.738.598-3.176 1.778-4.344 1.181-1.167 2.661-1.737 4.44-1.737 1.166 0 2.219.271 3.173.798a5.629 5.629 0 012.219 2.178c.527.926.797 1.965.797 3.105 0 1.737-.583 3.189-1.764 4.343-1.181 1.153-2.647 1.737-4.425 1.737zm0-2.378a3.74 3.74 0 001.864-.47 3.354 3.354 0 001.309-1.324c.313-.57.469-1.196.469-1.894 0-1.054-.341-1.937-1.039-2.635-.697-.712-1.565-1.053-2.603-1.053-1.039 0-1.907.356-2.618 1.053-.712.712-1.053 1.581-1.053 2.635 0 1.054.356 1.936 1.053 2.634.711.712 1.579 1.054 2.603 1.054h.015zm13.516 2.378c-1.124 0-2.148-.271-3.059-.798a5.676 5.676 0 01-2.162-2.178c-.527-.926-.783-1.951-.783-3.09 0-1.737.569-3.176 1.722-4.343 1.152-1.168 2.575-1.752 4.282-1.752 1.423 0 2.647.427 3.671 1.282 1.039.854 1.694 1.979 1.964 3.36h-2.533a3.542 3.542 0 00-.683-1.196 3.037 3.037 0 00-1.067-.783 3.277 3.277 0 00-1.352-.271c-.981 0-1.806.356-2.475 1.054-.655.712-.996 1.581-.996 2.635 0 1.053.327 1.922.996 2.62.669.697 1.48 1.053 2.475 1.053.769 0 1.423-.213 1.978-.655.555-.427.939-1.025 1.153-1.765h2.547c-.271 1.438-.925 2.606-1.964 3.488-1.039.883-2.276 1.325-3.714 1.325v.014zm7.499-.256v-11.663h2.532v11.663h-2.532zm12.919 0l-.811-2.222h-4.638l-.797 2.222h-2.661l4.567-11.663h2.376l4.71 11.663h-2.746zm-3.145-8.573l-1.522 4.158h3.045l-1.537-4.158h.014zm14.286-3.09v2.35h-3.244v9.313h-2.533v-9.313h-3.23v-2.35h9.007zm1.679 11.663v-11.663h2.532v11.663h-2.532zm10.728.256c-1.779 0-3.258-.584-4.439-1.737-1.181-1.168-1.779-2.606-1.779-4.343 0-1.738.598-3.176 1.779-4.344 1.181-1.167 2.66-1.737 4.439-1.737 1.167 0 2.219.271 3.173.798a5.629 5.629 0 012.219 2.178c.527.926.797 1.965.797 3.105 0 1.737-.583 3.189-1.764 4.343-1.181 1.153-2.647 1.737-4.425 1.737zm0-2.378a3.74 3.74 0 001.864-.47 3.348 3.348 0 001.309-1.324c.313-.57.469-1.196.469-1.894 0-1.054-.341-1.937-1.038-2.635-.698-.712-1.565-1.053-2.604-1.053-1.039 0-1.907.356-2.618 1.053-.712.712-1.053 1.581-1.053 2.635 0 1.054.356 1.936 1.053 2.634.711.712 1.579 1.054 2.604 1.054h.014zm15.551-9.541h2.462v11.663h-2.092l-5.278-7.277v7.277h-2.476v-11.663h2.276l5.108 7.12v-7.12zM69.718 143.095h2.633l-3.586 11.663h-2.248l-2.618-6.536-2.518 6.536h-2.248l-3.671-11.663h2.675l2.276 7.747 3.06-7.633h.853l3.144 7.633 2.234-7.747h.014zm4.212 11.649v-11.663h2.533v11.663H73.93zm13.232-11.649v2.35h-3.244v9.313h-2.532v-9.313h-3.23v-2.35h9.006zm8.594 0h2.518v11.663h-2.518v-4.813h-4.382v4.813H88.84v-11.663h2.533v4.5h4.382v-4.5zm13.645.001c1.181 0 2.163.384 2.945 1.139.783.754 1.181 1.723 1.181 2.862s-.398 2.107-1.181 2.862c-.782.755-1.764 1.139-2.945 1.139h-1.949v3.646h-2.533v-11.663h4.482v.015zm-.1 5.681c.498 0 .897-.156 1.21-.47.298-.313.455-.712.455-1.196s-.157-.897-.455-1.21c-.299-.314-.712-.47-1.21-.47h-1.849v3.346h1.849zm11.084-.128h6.204c0 1.837-.57 3.361-1.679 4.557-1.11 1.196-2.533 1.794-4.283 1.794-1.75 0-3.159-.57-4.297-1.723-1.152-1.154-1.722-2.592-1.722-4.343 0-1.752.57-3.204 1.694-4.358 1.138-1.153 2.561-1.737 4.282-1.737 1.452 0 2.718.413 3.813 1.239 1.082.826 1.765 1.894 2.035 3.204h-2.589a3.407 3.407 0 00-.712-1.097 3.455 3.455 0 00-1.11-.712 3.658 3.658 0 00-1.366-.256c-1.038 0-1.864.342-2.518 1.04-.64.683-.968 1.58-.968 2.663 0 .711.143 1.338.427 1.893a3.16 3.16 0 001.224 1.296c.526.313 1.138.47 1.821.47.498 0 .968-.085 1.409-.256.441-.171.825-.399 1.138-.712.313-.299.541-.655.697-1.04h-3.5v-1.951.029z" fill="#fff"/></svg>