<svg width="346" height="232" fill="none" xmlns="http://www.w3.org/2000/svg"><g clip-path="url(#clip0_893_13)" fill="#F44920"><path d="M302.979 52.415v67.176c0 2.828-.19 5.211-.79 7.197-.585 1.97-1.723 3.623-3.493 4.512-1.17.604-2.545.858-4.125.858-1.581 0-2.972-.286-4.141-.921-1.17-.62-2.086-1.605-2.703-2.765-1.248-2.335-1.549-5.386-1.549-9.151L300.956 0H260.78l-18.76 125.882c0 14.634 2.386 25.326 6.985 32.206 4.615 6.864 12.518 10.709 20.894 12.297 20.104 4.322 33.064-3.352 33.064-3.352V232H346V52.415h-43.037.016zm-242.035 0v67.176c0 2.828-.19 5.211-.79 7.197-.586 1.97-1.723 3.623-3.494 4.512-1.17.604-2.544.858-4.125.858-1.58 0-2.971-.286-4.14-.921-1.17-.62-2.087-1.605-2.703-2.765-1.249-2.335-1.549-5.386-1.549-9.151L58.826 0h-39.86L0 125.882c0 14.634 2.387 25.326 6.986 32.206 4.615 6.864 12.517 10.709 20.894 12.297 20.104 4.322 33.063-3.352 33.063-3.352V232h43.037V52.415H60.943zm160.212 11.09c-4.204-6.768-10.921-11.09-22.222-11.137h-48.71c-11.301.032-18.002 4.369-22.222 11.137-4.188 6.785-5.69 16.222-5.69 26.168v100.128c0 14.554 2.371 25.199 6.955 32.046 4.583 6.832 11.253 10.121 20.688 10.153h49.264c9.435-.032 16.105-3.321 20.689-10.153 4.583-6.847 6.954-17.492 6.954-32.046V89.673c0-9.946-1.502-19.383-5.69-26.168h-.016zm-38.2 119.766c0 3.749-.316 6.784-1.549 9.104-.617 1.16-1.533 2.129-2.687 2.748-1.17.62-2.545.906-4.125.906-1.581 0-2.956-.286-4.125-.906-1.17-.619-2.071-1.588-2.687-2.748-1.233-2.336-1.533-5.355-1.549-9.104v-82.444c0-2.812.19-5.212.79-7.23.585-2.001 1.692-3.685 3.462-4.623 1.169-.62 2.544-.906 4.125-.906 1.58 0 2.955.287 4.125.906 1.77.938 2.876 2.622 3.461 4.624.601 2.017.775 4.417.79 7.229v82.444h-.031z"/></g><defs><clipPath id="clip0_893_13"><path fill="#fff" d="M0 0h346v232H0z"/></clipPath></defs></svg>