<svg width="128" height="128" fill="none" xmlns="http://www.w3.org/2000/svg"><g clip-path="url(#clip0_893_3)" fill="#F44920"><path d="M64 128C28.717 128 0 99.299 0 64S28.717 0 64 0s64 28.717 64 64-28.717 64-64 64zM64 7.149C32.65 7.149 7.149 32.65 7.149 64c0 31.35 25.502 56.851 56.851 56.851 31.35 0 56.851-25.502 56.851-56.851 0-31.35-25.502-56.851-56.851-56.851z"/><path d="M12.904 63.25c0-23.022 16.532-41.345 40.167-51.418C24.936 20.986 3.582 38.942 3.582 64s19.394 48.892 51.724 53.04c-30.722-12.108-42.402-30.783-42.402-53.805v.015z"/><path d="M46.657 91.415c3.061-7.301 10.332-13.24 18.46-13.21 8.129.03 15.354 6.108 18.354 13.425.581 1.423 1.913 2.449 3.52 2.005 1.348-.383 2.588-2.082 2.006-3.52-3.965-9.706-12.98-17.573-23.864-17.62-10.884-.06-19.946 7.761-23.987 17.42-.597 1.44.643 3.138 2.005 3.521 1.638.475 2.924-.582 3.521-2.005l-.015-.016zM28.195 63.143a2.525 2.525 0 01-1.913-4.179L40.225 42.83a2.525 2.525 0 013.567-.26 2.525 2.525 0 01.26 3.566L30.108 62.27a2.523 2.523 0 01-1.913.873z"/><path d="M43.243 62.04a2.518 2.518 0 01-1.653-.611L25.456 47.483a2.525 2.525 0 01-.26-3.566 2.525 2.525 0 013.566-.26l16.134 13.945a2.525 2.525 0 01-1.653 4.439zm44.467 1.103a2.525 2.525 0 01-1.913-4.179L99.742 42.83a2.524 2.524 0 013.567-.26 2.525 2.525 0 01.26 3.566L89.624 62.27a2.523 2.523 0 01-1.914.873z"/><path d="M102.742 62.04a2.52 2.52 0 01-1.653-.611L84.94 47.483a2.525 2.525 0 01-.26-3.566 2.525 2.525 0 013.566-.26l16.134 13.945a2.524 2.524 0 01-1.653 4.439h.015z"/></g><defs><clipPath id="clip0_893_3"><path fill="#fff" d="M0 0h128v128H0z"/></clipPath></defs></svg>