<svg width="32" height="32" fill="none" xmlns="http://www.w3.org/2000/svg"><circle cx="16" cy="16" r="15.5" fill="#fff" stroke="#fff"/><g clip-path="url(#clip0_344_218)"><path d="M14.68 23.92C10.88 23.24 8 19.96 8 16c0-4.4 3.6-8 8-8s8 3.6 8 8c0 3.96-2.88 7.24-6.68 7.92l-.44-.36h-1.76l-.44.36z" fill="#F44920"/><path d="M19.12 18.24l.36-2.24h-2.12v-1.56c0-.64.24-1.12 1.2-1.12h1.04v-2.04c-.56-.08-1.2-.16-1.76-.16-1.84 0-3.12 1.12-3.12 3.12V16h-2v2.24h2v5.64a7.365 7.365 0 002.64 0v-5.64h1.76z" fill="#fff"/></g><defs><clipPath id="clip0_344_218"><path fill="#fff" transform="translate(8 8)" d="M0 0h16v16H0z"/></clipPath></defs></svg>