<svg width="32" height="32" fill="none" xmlns="http://www.w3.org/2000/svg"><path d="M21.49 27.202h-.072a6.757 6.757 0 01-4.73-1.991L5.333 13.856a4.714 4.714 0 010-6.66l.11-.109a4.714 4.714 0 016.659 0l11.545 11.547a2.951 2.951 0 01-4.173 4.174l-7.813-7.813a.934.934 0 111.32-1.32l7.813 7.814a1.085 1.085 0 001.533-1.536L10.784 8.406a2.853 2.853 0 00-4.018 0l-.112.111a2.853 2.853 0 000 4.019L18.01 23.89a4.898 4.898 0 003.431 1.446h.052a4.65 4.65 0 004.686-4.74 4.901 4.901 0 00-1.445-3.43l-11.84-11.84a.934.934 0 011.32-1.32l11.84 11.84a6.754 6.754 0 011.993 4.732 6.514 6.514 0 01-6.552 6.624h-.003z" fill="#323232"/></svg>