<svg width="32" height="32" fill="none" xmlns="http://www.w3.org/2000/svg"><circle cx="16" cy="16" r="15.5" fill="#fff" stroke="#fff"/><path d="M19.58 17.09c.278.104 1.76.83 2.062.98.3.15.503.225.579.352.075.126.075.726-.174 1.43-.255.702-1.46 1.342-2.039 1.429-.521.075-1.175.11-1.9-.121a16.672 16.672 0 01-1.72-.634c-3.029-1.303-5.004-4.335-5.154-4.537-.15-.202-1.234-1.625-1.234-3.107 0-1.481.776-2.208 1.054-2.507.278-.3.602-.375.805-.375.203 0 .406 0 .58.011.185.006.434-.074.677.514.255.599.857 2.08.932 2.23.076.15.122.323.024.525-.099.202-.151.328-.302.501-.15.173-.318.392-.451.525-.15.15-.307.311-.134.61.18.3.782 1.286 1.68 2.082 1.153 1.026 2.126 1.343 2.427 1.493.301.15.48.127.654-.075.174-.196.753-.876.956-1.176.197-.3.4-.248.678-.15z" fill="#F44920"/></svg>