<svg width="32" height="32" fill="none" xmlns="http://www.w3.org/2000/svg"><circle cx="16" cy="16" r="15.5" fill="#fff" stroke="#fff"/><path d="M11.417 16.6l-3.139-1.01s-.375-.15-.254-.491c.025-.07.075-.13.225-.233.695-.479 12.871-4.802 12.871-4.802s.344-.114.547-.038a.298.298 0 01.202.218.98.98 0 01.027.273c0 .08-.01.154-.018.27-.074 1.181-2.293 10.002-2.293 10.002s-.133.516-.609.534a.88.88 0 01-.635-.243c-.933-.793-4.16-2.935-4.873-3.406a.135.135 0 01-.058-.095c-.01-.05.044-.111.044-.111s5.619-4.933 5.768-5.451c.012-.04-.032-.06-.09-.042-.374.135-6.843 4.17-7.557 4.616a.349.349 0 01-.158.01z" fill="#F44920"/></svg>