<svg width="32" height="32" fill="none" xmlns="http://www.w3.org/2000/svg"><circle cx="16" cy="16" r="15.5" fill="#fff" stroke="#fff"/><path d="M23.392 12.687a1.932 1.932 0 00-1.364-1.364C20.825 11 16 11 16 11s-4.825 0-6.028.323c-.664.177-1.186.7-1.364 1.364-.322 1.202-.322 3.713-.322 3.713s0 2.511.322 3.714c.178.664.7 1.186 1.364 1.364 1.203.323 6.028.323 6.028.323s4.825 0 6.028-.323a1.932 1.932 0 001.364-1.364c.323-1.203.323-3.714.323-3.714s-.002-2.51-.323-3.713z" fill="#F44920"/><path d="M14.456 18.715l4.008-2.314-4.008-2.315v4.629z" fill="#fff"/></svg>