<svg width="175" height="62" viewBox="0 0 175 62" fill="none" xmlns="http://www.w3.org/2000/svg">
<g id="svg7952" clip-path="url(#clip0_320_458)">
<g id="layer1">
<g id="g124">
<g id="Clip path group">
<mask id="mask0_320_458" style="mask-type:luminance" maskUnits="userSpaceOnUse" x="-1" y="-21" width="202" height="83">
<g id="clipPath128">
<path id="path130" d="M-0.000732422 61.533H200.345V-20.4791H-0.000732422V61.533Z" fill="white"/>
</g>
</mask>
<g mask="url(#mask0_320_458)">
<g id="g126">
<g id="g132">
<path id="path134" d="M19.7557 0.000183105C23.9431 0.000183105 25.2589 3.00367 26.3629 6.00244C26.8266 7.27586 37.7083 37.0753 38.0355 37.9698C38.1226 38.2193 38.0637 38.6288 37.6801 38.7771C37.294 38.9231 31.6401 41.1215 31.3271 41.2392C31.014 41.3593 30.6633 41.1851 30.5503 40.872C30.4326 40.5637 28.0859 34.0671 27.8222 33.3421H11.6938C11.4396 34.0671 9.06459 40.5778 8.95867 40.872C8.85039 41.171 8.51379 41.3734 8.17955 41.2392C7.8453 41.1074 2.17023 38.909 1.83128 38.7771C1.50645 38.65 1.35816 38.2805 1.47114 37.9698C1.87129 36.8541 12.5883 7.53243 13.1344 6.00244C14.1983 3.04839 15.5588 0.000183105 19.7557 0.000183105ZM0.609641 53.3214C0.27069 53.3214 0 53.6039 0 53.9476V60.9125C0 61.2562 0.27069 61.5339 0.609641 61.5339H38.8852C39.2312 61.5339 39.5019 61.2562 39.5019 60.9125V53.9476C39.5019 53.6039 39.2312 53.3214 38.8852 53.3214H0.609641ZM19.718 9.73091L14.2665 26.1018H25.2589L19.7886 9.73091H19.718ZM101.521 36.574C100.718 36.8446 100.188 36.9105 99.5575 36.9105C98.2534 36.9105 97.5308 36.3951 97.5308 35.0581C97.5308 33.6646 98.4488 33.1986 100.252 33.1986C100.692 33.1986 101.125 33.2621 101.328 33.3327V34.3308C101.328 35.4065 101.386 36.1126 101.521 36.574ZM106.155 38.1698C105.193 36.7081 104.941 35.8466 104.941 34.0036V30.261C104.941 28.2461 104.705 27.5188 104.173 26.7844C103.432 25.744 102.196 25.2921 99.9247 25.2921C98.317 25.2921 96.7564 25.4662 95.2453 25.8523L95.7914 28.5121C96.8129 28.3685 97.8839 28.2461 98.6395 28.2461C101.052 28.2461 101.328 28.5945 101.328 30.4046V31.0801C100.791 30.9365 100.188 30.833 99.4892 30.833C95.8573 30.833 93.9389 32.6101 93.9389 35.5524C93.9389 38.3111 95.9891 39.8152 98.4865 39.8152C99.4186 39.8152 100.393 39.6433 101.165 39.3279C101.631 39.1255 101.834 39.0055 102.436 38.6147C102.799 39.142 103.526 39.681 103.823 39.7822L106.155 38.1698ZM142.082 36.574C141.274 36.8446 140.754 36.9105 140.119 36.9105C138.81 36.9105 138.078 36.3951 138.078 35.0581C138.078 33.6646 139.008 33.1986 140.815 33.1986C141.256 33.1986 141.691 33.2621 141.889 33.3327V34.3308C141.889 35.4065 141.945 36.1126 142.082 36.574ZM146.721 38.1698C145.751 36.7081 145.504 35.8466 145.504 34.0036V30.261C145.504 28.2461 145.264 27.5188 144.727 26.7844C143.995 25.744 142.757 25.2921 140.479 25.2921C138.873 25.2921 137.303 25.4662 135.792 25.8523L136.331 28.5121C137.355 28.3685 138.429 28.2461 139.205 28.2461C141.604 28.2461 141.889 28.5945 141.889 30.4046V31.0801C141.352 30.9365 140.754 30.833 140.041 30.833C136.404 30.833 134.479 32.6101 134.479 35.5524C134.479 38.3111 136.534 39.8152 139.043 39.8152C139.987 39.8152 140.952 39.6433 141.717 39.3279C142.19 39.1255 142.385 39.0055 142.988 38.6147C143.355 39.142 144.082 39.681 144.381 39.7822L146.721 38.1698ZM175 39.5021C175 39.5021 173.009 35.2582 172.521 34.2931C171.973 33.2056 171.465 32.4548 170.344 32.1841V32.1229C171.095 31.9793 171.693 31.525 172.347 30.1362C172.966 28.7828 173.15 28.4909 173.515 28.1684C173.872 27.8483 174.362 27.9636 174.362 27.9636L174.546 25.4615C174.026 25.3909 173.449 25.3886 172.853 25.4215C171.865 25.4804 171.354 25.7652 170.867 26.2548C170.485 26.629 170.226 27.1892 169.906 27.8318C169.567 28.5333 169.299 29.0982 168.946 29.8114C168.595 30.5434 168.43 30.873 167.487 30.873H166.872V19.7888H163.236V39.5021H166.872V33.8341L167.369 33.8247C168.412 33.8247 168.595 34.086 169.146 35.1852C169.791 36.4963 171.027 39.5021 171.027 39.5021H175ZM72.552 39.5021H76.7489L70.4006 20.1183C69.7321 19.8947 68.9059 19.7559 68.0233 19.7559C67.0605 19.7559 66.7169 19.883 65.9637 20.1183L59.2458 39.5021H63.2732C63.2732 39.5021 63.817 37.8026 64.4572 35.696H71.4151C72.0365 37.8003 72.552 39.5021 72.552 39.5021ZM65.4788 32.4453C65.4788 32.4453 66.6416 28.5545 66.8228 27.9495C67.2841 26.3819 67.9856 23.8915 67.9856 23.8915H68.1009C68.1009 23.8915 68.7506 26.4713 69.1743 27.9213C69.3343 28.498 70.4453 32.4453 70.4453 32.4453H65.4788ZM112.351 30.228C111.068 30.228 110.025 31.2755 110.025 32.5583C110.025 33.8506 111.068 34.891 112.351 34.891C113.636 34.891 114.674 33.8506 114.674 32.5583C114.674 31.2755 113.636 30.228 112.351 30.228ZM81.7319 19.7888H78.0859V39.4998H81.7319V19.7888ZM154.171 28.425C156.186 28.4674 156.435 28.884 156.435 30.574V39.5021H160.048V30.261C160.048 28.2461 159.813 27.5188 159.276 26.7844C158.535 25.744 157.078 25.2921 154.613 25.2921C152.175 25.2921 150.621 25.551 148.623 26.1465V39.5021H152.274V28.5945C153.232 28.4556 153.401 28.425 154.171 28.425ZM90.7495 19.4381C88.471 19.4381 87.2305 19.89 86.5008 20.9281C85.9641 21.6648 85.7264 22.4086 85.7264 24.4282V26.1465H83.9163V29.0935H85.7264V39.5021H89.3419L89.3325 29.0935H92.9362V26.1465H89.3325L89.3419 24.5671C89.3419 22.7593 89.6173 22.4086 92.0323 22.4086C92.2936 22.4086 92.5878 22.4227 92.9009 22.4463L93.4705 19.6146C92.5784 19.4969 91.6651 19.4381 90.7495 19.4381ZM119.758 19.6217C120.998 19.5487 123.771 19.4451 125.511 19.4451C125.829 19.4451 126.158 19.4475 126.488 19.464C129.908 19.464 131.868 21.9543 131.868 24.8778C131.868 26.8668 130.958 28.1873 128.823 28.9734C131.334 29.5289 132.65 31.4897 132.65 33.8882C132.65 35.6489 132.153 37.0471 131.242 38.0004C130.061 39.1632 128.272 39.8152 125.89 39.8152C123.771 39.8152 121.111 39.7493 119.758 39.6692V19.6217ZM125.511 22.8511C124.908 22.8511 124.162 22.8629 123.423 22.8888V27.6223H125.513C126.342 27.6223 127.008 27.3917 127.462 26.9468C127.895 26.5278 128.121 25.9347 128.121 25.2309C128.121 23.7173 127.302 22.8606 125.779 22.8511H125.511ZM125.586 36.4162H125.744C127.643 36.4162 128.806 35.4065 128.82 33.3727C128.801 32.6431 128.521 31.9699 128.02 31.4826C127.472 30.9318 126.695 30.6447 125.784 30.6447H123.423V36.3951C124.089 36.4092 124.823 36.4115 125.586 36.4162Z" fill="#F44920"/>
</g>
</g>
</g>
</g>
</g>
</g>
</g>
<defs>
<clipPath id="clip0_320_458">
<rect width="175" height="61.533" fill="white"/>
</clipPath>
</defs>
</svg>
