<svg width="185" height="59" viewBox="0 0 185 59" fill="none" xmlns="http://www.w3.org/2000/svg">
<g id="Frame" clip-path="url(#clip0_320_467)">
<g id="Layer 2">
<g id="Layer 1">
<path id="Vector" d="M129.597 4.463C129.597 4.463 126.129 5.8462 122.096 10.3002C118.063 14.7542 115.714 19.7626 117.452 21.0946C118.12 21.6009 119.66 21.6973 122.454 19.166C125.033 16.9228 127.057 14.1108 128.367 10.9511C130.172 6.54233 129.597 4.51724 129.597 4.46903M151.671 12.4759C147.19 10.1736 143.914 7.35296 140.506 5.60814C137.255 3.93563 135.153 3.2365 132.524 3.58908C132.157 3.65457 131.795 3.74519 131.441 3.86029C131.441 3.86029 132.795 8.49208 127.408 16.273C121.952 24.1624 117.001 24.1081 115.593 21.9414C114.12 19.6542 116.023 14.9922 119.203 10.8426C122.532 6.50315 128.379 2.90501 128.379 2.90501C128.379 2.90501 126.514 1.76288 121.937 4.36355C117.47 6.88888 109.782 12.9159 102.648 23.0805C95.5137 33.2451 94.1001 38.8382 93.0774 43.241C92.0548 47.6437 92.9842 52.3599 97.8567 52.3599C102.729 52.3599 108.402 44.9135 110.002 42.3249C112.977 37.5032 114.917 30.1081 110.868 31.1236C108.874 31.6239 107.259 33.8358 106.239 35.9663C105.596 37.3348 105.103 38.7697 104.772 40.2455C103.357 40.8297 102.028 41.6043 100.822 42.5479C99.4809 43.5435 98.2271 44.6525 97.0747 45.8627C97.0747 45.8627 97.0928 42.3429 99.893 36.6474C102.693 30.9518 107.833 28.3512 110.745 28.1071C113.368 27.8961 116.781 30.1261 113.888 38.353C110.995 46.58 102.459 56.5818 93.4925 56.7054C85.2182 56.8199 79.8043 46.2394 91.3209 27.7756C104.068 7.37707 119.019 1.11799 123.874 0.421868C128.728 -0.274255 130.307 1.87137 130.307 1.87137C133.229 0.670197 136.386 0.148835 139.538 0.34653C145.466 0.747328 150.05 4.95119 156.102 7.90444C154.529 9.4112 153.028 10.9933 151.674 12.4759M178.305 5.60814C174.196 8.24798 168.512 10.6407 163.049 10.1284C161.666 11.5598 160.186 13.2173 158.703 15.0254C168.175 16.9028 176.473 11.0234 180.885 6.01797C182.494 4.21833 183.876 2.22756 185 0.0903804C182.991 2.18672 180.743 4.03873 178.302 5.60814M165.69 32.3441C165.762 32.219 165.821 32.0866 165.865 31.9493C165.837 31.732 165.735 31.5309 165.577 31.3796C165.419 31.2282 165.213 31.1357 164.995 31.1176C164.093 31.0754 162.863 31.2472 159.636 34.8272C156.958 37.7837 154.654 41.0588 152.775 44.579C150.928 47.9601 150.179 50.4795 151.241 51.1304C151.586 51.3094 151.986 51.3503 152.36 51.2449C153.079 51.0731 153.894 50.3981 155.133 48.9606C155.714 48.2856 156.357 47.3303 157.127 46.2726C159.263 43.3615 164.629 34.1974 165.69 32.3441ZM132.166 36.2376C132.704 34.8272 133.39 32.0578 131.965 30.9699C130.434 29.8157 126.53 32.5249 126.508 35.3034C126.481 38.1481 129.258 39.4349 129.922 39.6157C130.301 39.7182 130.434 39.7031 130.617 39.3987C131.206 38.3822 131.723 37.326 132.166 36.2376ZM129.212 41.4118C128.245 40.9642 127.342 40.3874 126.53 39.6971C125.714 39.0119 125.033 38.1812 124.52 37.2471C124.466 37.1567 124.412 37.226 124.352 37.3074C124.292 37.3887 124.051 37.6087 121.97 40.6644C119.888 43.7201 116.691 50.0515 119.585 51.1304C121.437 51.8205 124.52 48.5689 126.202 46.4142C127.347 44.9103 128.385 43.3273 129.309 41.677C129.396 41.4931 129.309 41.4509 129.215 41.4118M162.036 48.7256C161.251 49.9852 160.355 52.4021 162.938 50.8983C166.099 49.0691 170.602 42.2254 170.602 42.2254H172.644C170.786 45.0882 168.717 47.8079 166.454 50.3619C163.251 53.9179 159.344 57.1484 156.592 56.8289C153.377 56.4523 154.384 52.2243 154.384 52.2243C154.384 52.2243 149.785 57.1303 146.603 56.7777C142.305 56.3016 143.616 50.9797 143.616 50.9797C143.616 50.9797 138.756 56.9555 135.444 56.7717C130.253 56.4703 131.558 50.1419 133.002 45.6849C133.775 43.3013 134.491 41.4299 134.491 41.4299C134.491 41.4299 133.977 41.5655 132.87 41.7312C132.292 41.8126 131.24 41.8728 131.24 41.8728C131.24 41.8728 129.077 45.694 127.348 47.9903C125.618 50.2866 118.267 58.2031 113.942 56.618C109.942 55.1534 111.265 49.0179 113.593 44.142C116.992 37.0331 126.551 26.8203 132.064 28.1704C137.778 29.5596 132.193 40.0075 132.193 40.0075C132.193 40.0075 132.193 40.0466 132.253 40.0738C132.368 40.116 132.665 40.1491 133.354 40.0135C134.068 39.8676 134.767 39.6589 135.444 39.3897C135.444 39.3897 141.189 27.3356 147.536 19.4492C153.882 11.5629 166.541 -2.01908 171.51 1.26565C172.713 2.07328 172.172 4.85476 170.536 8.2299C169.799 8.46974 169.05 8.67092 168.292 8.8326C169.387 6.84067 170.112 5.16214 170.328 3.98988C171.077 -0.084404 161.582 8.51016 154.796 17.7436C150.709 23.31 147.078 29.1985 143.938 35.3516C145.164 34.6026 146.334 33.7656 147.439 32.8473C150.466 30.3329 153.342 27.6422 156.053 24.7892C158.664 22.1113 161.113 19.2796 163.386 16.3091C164.109 16.2741 164.829 16.1997 165.543 16.0861C163.064 19.4571 160.361 22.6567 157.452 25.6631C154.745 28.4054 151.816 31.3557 149.271 33.4983C146.998 35.4348 144.601 37.2196 142.095 38.8412C142.095 38.8412 136.16 50.832 139.388 51.6005C141.285 52.0585 145.033 46.2756 145.033 46.2756C145.033 46.2756 149.924 38.799 152.871 35.4269C156.893 30.8464 160.355 28.1945 163.813 28.1463C165.829 28.1101 167.017 30.2557 167.017 30.2557L167.964 28.7851H173.799C173.799 28.7851 162.902 47.3122 162.03 48.7075M178.302 5.60814C174.193 8.24798 168.509 10.6407 163.046 10.1284C161.663 11.5598 160.183 13.2173 158.7 15.0254C168.172 16.9028 176.47 11.0234 180.882 6.01797C182.492 4.2185 183.875 2.22772 185 0.0903804C182.991 2.18672 180.743 4.03873 178.302 5.60814ZM96.3559 14.6969H90.8066L87.6695 19.7747H93.2188L96.3559 14.6969ZM70.0803 32.2808C72.4414 29.0383 78.9561 17.6743 78.9561 17.6743C78.9286 17.4572 78.8276 17.2562 78.6699 17.1048C78.5123 16.9534 78.3075 16.8608 78.0899 16.8425C77.1876 16.8004 75.6837 17.1047 72.697 20.8505C69.7103 24.5963 67.3914 27.5767 65.701 30.6776C63.8482 34.0618 63.0392 36.4485 64.1039 37.0964C64.4494 37.2698 64.8463 37.3106 65.2198 37.2109C65.9116 37.0361 66.8169 36.34 68.0591 34.9086C68.6426 34.2396 69.3043 33.3386 70.0803 32.2808ZM40.3037 16.9118C38.7697 15.7516 34.8687 18.4668 34.8476 21.2393C34.8236 24.087 38.3577 24.9579 38.8148 24.979C38.9493 24.9902 39.0841 24.962 39.2028 24.8977C39.2844 24.85 39.3495 24.7785 39.3893 24.6928C39.8048 23.8747 40.1783 23.0358 40.5082 22.1795C41.0466 20.7692 41.7293 17.9997 40.3037 16.9118ZM37.9907 26.7148C36.933 26.3838 35.9221 25.9179 34.983 25.3286C34.0729 24.7341 33.3328 23.9127 32.8354 22.9449C32.7813 22.8545 32.7212 22.9238 32.667 23.0052C32.6129 23.0866 32.3001 23.4783 30.2127 26.5461C28.1253 29.6138 25.0334 35.888 27.9298 36.9668C29.7766 37.669 32.8956 34.3903 34.589 32.2446C35.8561 30.5585 37.027 28.8018 38.096 26.983C38.1652 26.7992 38.096 26.757 37.9937 26.7239M83.3143 28.6043H85.3476C85.3476 28.6043 75.1603 43.3706 69.4065 42.6835C66.1943 42.3068 67.1477 38.335 67.1477 38.335C67.1477 38.335 62.6361 43.6267 58.4915 42.5539C54.7318 41.5866 57.159 35.3214 57.159 35.3214C56.7319 35.4932 48.596 44.6814 42.8783 42.4786C36.8959 40.1642 40.0029 32.4707 41.1398 30.1563C42.1053 28.2065 43.173 26.308 43.173 26.308C43.173 26.308 42.2557 26.5672 41.6692 26.6998C41.0827 26.8324 40.2345 27.0011 40.2345 27.0011C40.2345 27.0011 37.4042 31.6088 35.6748 33.9081C33.9453 36.2074 26.5944 44.1089 22.2632 42.5358C17.9321 40.9628 19.0059 34.8905 21.4391 30.0689C25.3853 22.2488 34.7484 12.6387 40.3879 14.0972C46.0845 15.5528 41.3684 24.8103 41.3684 24.8103C41.3684 24.8103 42.5023 24.958 45.2183 23.1016C49.1284 20.4286 54.2897 13.2384 59.878 14.0822C62.5128 14.4799 64.9671 17.177 61.6105 22.3C60.5397 23.9454 58.7441 25.416 57.3696 23.9605C56.5124 23.0564 57.2613 21.408 58.1606 20.281C58.5106 19.8215 58.968 19.4554 59.4925 19.2147C60.017 18.974 60.5925 18.8662 61.1684 18.9008C61.1684 18.9008 62.0917 16.7913 59.7427 16.8214C57.8418 16.8576 53.0294 21.2965 50.3134 25.7806C47.823 29.8971 44.0483 36.9096 47.8381 38.4374C51.312 39.8417 57.923 31.9795 60.9849 27.86C64.0468 23.7405 71.0247 14.4046 76.8778 14.0309C78.893 13.8983 80.093 15.7396 80.093 15.7396L80.7698 14.6668H86.6228C86.6228 14.6668 75.5995 33.0975 74.7393 34.4927C74.0625 35.5836 73.1632 38.0366 75.6416 36.6625C78.12 35.2883 83.3143 28.6043 83.3143 28.6043ZM80.1291 58.1368C75.8195 55.1478 70.659 53.639 65.4213 53.8365C64.0036 53.8752 62.615 54.2482 61.3682 54.9252C60.1213 55.6022 59.0512 56.5642 58.2448 57.733C56.0131 53.8305 51.6007 51.4347 44.7792 51.489C33.7558 51.6156 22.8227 56.7084 14.1604 56.7024C5.85904 56.7024 -0.19554 51.4739 -3.67286e-05 42.1893C0.3639 25.8952 14.1063 11.2223 24.3626 4.6197C30.2759 0.825679 35.2206 -0.301377 38.4539 0.0632588C40.812 0.325435 43.6483 3.05568 41.8587 7.07873C39.2299 12.9581 35.5996 12.4759 35.7349 9.66433C35.8101 7.83513 37.0252 6.68396 37.9396 6.04811C38.5201 5.64731 39.5457 5.5328 40.0811 5.52074C40.6014 5.08077 40.9834 1.86233 36.7726 2.92008C32.5617 3.97782 27.4486 8.13648 22.5941 13.5096C17.7396 18.8827 10.1812 29.0383 8.31335 39.7031C7.44111 44.6483 8.01258 53.6678 19.7157 53.5653C29.6412 53.4839 44.2709 46.9356 57.7155 47.0712C62.9339 47.1224 67.4756 48.5327 71.0157 50.7205C74.4926 52.8662 78.6614 56.0002 80.1412 58.1398" fill="#F44920"/>
</g>
</g>
</g>
<defs>
<clipPath id="clip0_320_467">
<rect width="185" height="58.1429" fill="white"/>
</clipPath>
</defs>
</svg>
