<svg width="173" height="63" viewBox="0 0 173 63" fill="none" xmlns="http://www.w3.org/2000/svg">
<g id="Frame" clip-path="url(#clip0_320_471)">
<path id="Vector" fill-rule="evenodd" clip-rule="evenodd" d="M12.6435 0L0 8.77567V15.8162L12.6435 6.96332L25.2716 15.8155V8.77567L12.6435 0Z" fill="#F44920"/>
<path id="Vector_2" fill-rule="evenodd" clip-rule="evenodd" d="M137.985 27.1658C136.256 27.1658 134.63 27.5587 133.196 28.2797L131.474 17.7489H127.888V46.3696C128.062 46.6077 128.187 46.9215 128.315 47.2409C128.482 47.661 128.654 48.0905 128.943 48.3705C133.856 53.1173 141.848 53.1173 146.761 48.3705C151.671 43.6212 151.673 35.4665 146.762 30.7181C144.338 28.3772 141.166 27.1975 137.985 27.1658ZM12.6686 27.1484C18.4122 27.1484 22.5627 31.65 22.5627 37.2035V51.931H17.5313V38.0935C17.5313 35.0095 14.9349 32.5016 11.7418 32.5016C10.2626 32.5016 8.86964 33.0395 7.80527 33.9976V51.931H2.77509V17.7492H6.43673L7.87939 28.2792C9.3128 27.5583 10.9403 27.1484 12.6686 27.1484ZM81.8345 29.981L77.2938 33.2306V41.6546C77.2938 44.1359 79.3104 46.8758 81.8772 46.8758V51.8687H81.5043C76.0949 51.8687 71.6911 46.8846 71.6911 41.6546V23.2057H75.2095L76.2592 27.2529H81.4303L81.8345 29.981ZM172.889 27.306H167.672L167.674 44.6504C166.61 45.6101 165.3 46.5263 163.818 46.5263C160.627 46.5263 158.069 43.6377 158.069 40.5536V27.306H153.195L153.197 39.2373V41.4475C153.197 47.0011 157.15 51.8811 162.894 51.8811C164.64 51.8811 166.195 51.0816 167.639 50.3402L167.672 50.3229V50.4848C167.672 54.2543 164.597 57.3095 160.699 57.3095H158.852V62.3174L161.077 62.3159C167.828 62.3159 172.891 57.0126 172.891 50.4876L172.889 27.306ZM119.617 45.9275C118.949 46.5826 118.561 47.4883 118.561 48.4094C118.561 49.3357 118.949 50.2428 119.617 50.8988C120.297 51.5451 121.234 51.9205 122.193 51.9205C123.146 51.9205 124.083 51.5451 124.763 50.8988C125.433 50.2428 125.819 49.3357 125.819 48.4094C125.819 47.4883 125.433 46.5826 124.763 45.9275C124.083 45.2699 123.146 44.8954 122.193 44.8954C121.234 44.8954 120.297 45.2699 119.617 45.9275ZM61.4059 41.3462C62.8813 41.3462 64.0763 42.5508 64.0763 44.0372C64.0763 45.5227 62.8813 46.7282 61.4059 46.7282H52.7656V51.931H61.7818C66.1096 51.931 69.6183 48.397 69.6183 44.0372C69.6183 39.6774 66.1096 36.1427 61.7818 36.1427H59.0364C58.0409 36.1427 57.2324 35.3283 57.2324 34.3245C57.2324 33.3207 58.0409 32.5063 59.0364 32.5063H66.2936V27.306H58.6582C54.8096 27.306 51.6898 30.4488 51.6898 34.3261C51.6898 38.2032 54.8096 41.3462 58.6582 41.3462H61.4059ZM37.9075 51.9494C30.9604 51.9494 25.3086 46.3865 25.3086 39.5479C25.3086 32.7069 30.9604 27.1471 37.9075 27.1471C44.8546 27.1471 50.505 32.7069 50.505 39.5479C50.505 46.3865 44.8546 51.9494 37.9075 51.9494ZM30.8475 39.5478C30.8475 35.7129 34.0139 32.5978 37.9083 32.5978C41.8005 32.5978 44.9677 35.7129 44.9677 39.5478C44.9677 43.3782 41.8005 46.4963 37.9083 46.4963C34.0139 46.4963 30.8475 43.3782 30.8475 39.5478ZM107.42 36.9955C107.42 31.7655 111.823 27.5091 117.233 27.5091H118.026V32.5019H117.605C115.038 32.5019 112.462 34.5133 112.462 36.9955L112.463 51.9006H107.42V36.9955ZM105.017 31.6744C102.704 28.9176 99.1808 27.1478 95.2319 27.1478C88.2864 27.1478 82.633 32.6066 82.633 39.3236C82.633 46.0384 88.2864 51.8811 95.2319 51.8811C98.5778 51.8811 101.62 50.6091 103.879 48.543L99.9609 44.6842C98.7085 45.7819 97.0519 46.4541 95.2319 46.4541C91.3389 46.4541 88.1727 43.088 88.1727 39.3236C88.1727 35.5585 91.3389 32.4995 95.2319 32.4995C96.851 32.4995 98.3387 33.0321 99.53 33.9223L94.2083 38.2287V44.3916L105.017 36.2314V31.6744ZM133.121 34.2802V44.6647C135.887 47.0928 140.175 47.0226 142.844 44.4394C145.599 41.7794 145.6 37.1677 142.845 34.5033C140.176 31.923 135.887 31.8551 133.121 34.2802Z" fill="#F44920"/>
</g>
<defs>
<clipPath id="clip0_320_471">
<rect width="173" height="62.3172" fill="white"/>
</clipPath>
</defs>
</svg>
