<svg width="83" height="84" viewBox="0 0 83 84" fill="none" xmlns="http://www.w3.org/2000/svg">
<g id="g11533">
<path id="path4250" d="M25.4824 70.0802V77.9305C25.4824 80.1604 24.3706 81.3502 22.3504 81.3502C20.3189 81.3502 19.2004 80.126 19.2004 77.8353V70.0888H16.4055V77.9305C16.4055 81.7889 18.559 83.9999 22.3136 83.9999C26.1037 83.9999 28.2773 81.7465 28.2773 77.8174V70.0802H25.4824ZM35.7654 70.0802L29.6951 83.7862H32.5481L33.7198 81.1318L33.8037 80.9328H40.1099L41.3467 83.7862H44.2772L38.2633 70.1614L38.2093 70.0802L35.7654 70.0802ZM52.3837 70.0802L49.2557 79.5108L46.2108 70.0873H43.2363L48.0377 83.7948H50.3522L53.4865 74.7901L56.6184 83.7948H58.9525L63.7421 70.0873H60.8438L57.7925 79.5108L54.6637 70.0802H52.3837ZM79.735 70.0802V83.7745H82.4931V70.0802H79.735ZM0.625854 70.081V83.794H3.42157V78.2246H9.73406V83.794H12.5306V70.081H9.73406V75.613H3.42157V70.081H0.625854ZM65.9963 70.0903V83.7846H76.4016V81.2877H68.7544V77.8922H73.8395V75.3946H68.7544V72.5872H76.1351V70.0903H65.9963ZM36.9497 73.5506L38.9429 78.1418H38.9359L39.0715 78.4585H34.843L34.977 78.1418L36.9497 73.5506Z" fill="#F44920"/>
<path id="path4252" d="M35.4395 -0.000433448C34.3306 0.0971844 31.334 0.776015 31.334 0.776015C24.5797 2.5135 22.982 8.61365 22.982 8.61365C22.6522 9.63942 22.5024 10.6907 22.4583 11.6811V13.0291C22.5479 15.1118 23.0133 16.6669 23.0133 16.6669C25.2695 26.6234 36.3627 42.9834 38.7468 46.4201C38.916 46.5871 39.0514 46.5268 39.0514 46.5268C39.3088 46.4561 39.2886 46.2104 39.2886 46.2104L39.2935 46.2116C42.9657 9.6823 35.4395 -0.000433448 35.4395 -0.000433448ZM47.5732 -0.000433448C47.5732 -0.000433448 40.0142 9.68742 43.6892 46.238H43.694C43.7225 46.47 43.8879 46.5184 43.8879 46.5184C44.1338 46.6132 44.2599 46.3781 44.2599 46.3781L44.2612 46.3804C46.7064 42.8559 57.7364 26.585 59.9826 16.6667C59.9826 16.6667 61.2005 11.8663 60.0248 8.61345C60.0248 8.61345 58.355 2.41885 51.5922 0.781835C51.5922 0.781835 49.6431 0.289614 47.5732 -0.000433448ZM12.7074 10.9657C12.7074 10.9657 6.27178 17.0448 5.95191 23.4896H5.95447V24.4662C5.95936 24.5397 5.96309 24.6141 5.96775 24.689C6.24498 29.8859 10.1732 32.9616 10.1732 32.9616C16.5025 39.1008 31.8279 46.8517 35.3892 48.6104C35.4391 48.629 35.623 48.6888 35.7311 48.5529C35.7311 48.5529 35.7873 48.5105 35.813 48.4342V48.2724C35.8104 48.2631 35.8055 48.2538 35.8009 48.2436C26.0483 27.0402 12.7074 10.9657 12.7074 10.9657ZM70.2897 10.9657C70.2897 10.9657 56.9879 26.9899 47.2397 48.1503L47.2434 48.1491C47.2434 48.1491 47.1283 48.3945 47.3144 48.5529C47.3144 48.5529 47.37 48.5947 47.4468 48.6116H47.5817C47.6059 48.6046 47.6319 48.5954 47.6576 48.578C51.3155 46.7712 66.5224 39.0734 72.8217 32.9626C72.8217 32.9626 76.811 29.7743 77.02 24.6553C77.4806 17.5455 70.2897 10.9657 70.2897 10.9657ZM82.262 32.0162C82.262 32.0162 60.5761 43.5984 49.3635 51.1256L49.3673 51.1291C49.3673 51.1291 49.1638 51.2617 49.2348 51.4994C49.2348 51.4994 49.3412 51.6911 49.4961 51.6911C53.5123 51.6981 68.7097 51.7163 69.0907 51.6455C69.0907 51.6455 71.0558 51.5674 73.484 50.639C73.484 50.639 78.8897 48.9286 81.6975 42.8206C81.6975 42.8206 82.9805 40.2666 82.999 36.6784V36.5263C82.9896 35.1426 82.7936 33.6108 82.262 32.0162ZM0.729084 32.0702C-1.244 38.1493 1.41227 43.0477 1.41656 43.0556C4.18472 48.8766 9.46871 50.6404 9.46871 50.6404C11.9083 51.6378 14.3484 51.7068 14.3484 51.7068C14.7294 51.7761 29.5219 51.7138 33.4855 51.6952C33.6533 51.694 33.7456 51.5262 33.7456 51.5262C33.7572 51.5076 33.7675 51.4891 33.7721 51.4721V51.32C33.7392 51.2182 33.6517 51.1464 33.6517 51.1464L33.6542 51.1451C22.4472 43.6205 0.729084 32.0702 0.729084 32.0702ZM33.0328 53.564L7.52188 54.4543C10.2884 59.3626 14.9476 63.1771 19.8012 62.0056C23.1506 61.1722 30.7386 55.9047 33.2435 54.1248L33.2351 54.1179C33.4299 53.9437 33.3603 53.8039 33.3603 53.8039C33.2962 53.576 33.0328 53.5762 33.0328 53.5762L33.0328 53.564ZM49.9293 53.5826L49.9268 53.5919C49.9268 53.5919 49.7028 53.6201 49.6402 53.7871C49.6402 53.7871 49.5858 54.0153 49.7365 54.1286L49.734 54.1309C52.1764 55.874 59.5805 61.0257 63.1474 62.026C63.1474 62.026 63.6878 62.209 64.5934 62.2417H65.1376C67.5274 62.1582 71.6906 60.9364 75.4736 54.4675L49.9293 53.5826Z" fill="#F44920"/>
</g>
</svg>
