<svg width="228" height="56" viewBox="0 0 228 56" fill="none" xmlns="http://www.w3.org/2000/svg">
<g id="Layer_1" clip-path="url(#clip0_320_474)">
<path id="Vector" d="M196.3 0.334961C184.455 0.334961 174.701 9.99585 174.701 22.1159C174.701 34.0602 184.281 43.8968 196.3 43.8968C208.144 43.8968 217.898 34.2359 217.898 22.1159C217.898 9.99585 208.144 0.334961 196.3 0.334961ZM213.021 9.99585C211.976 10.6985 210.756 11.4011 209.537 12.1037C208.84 10.6985 207.97 9.29324 206.924 8.06367C207.795 7.53671 208.666 6.8341 209.363 6.30715C210.931 7.18541 212.15 8.59063 213.021 9.99585ZM203.963 2.7941C205.705 3.49671 207.273 4.37497 208.84 5.60454C208.144 6.30715 207.273 6.8341 206.402 7.36106C205.357 6.13149 204.138 5.07758 202.918 4.02366C203.267 3.49671 203.615 3.1454 203.963 2.7941ZM205.705 7.71237C204.486 8.41498 203.267 8.76628 202.047 9.29324C201.525 8.06367 201.002 6.8341 200.306 5.78019C201.002 5.42888 201.699 5.07758 202.222 4.55062C203.441 5.42888 204.66 6.4828 205.705 7.71237ZM203.093 2.44279C202.744 2.7941 202.396 3.1454 202.222 3.49671C201.002 2.7941 199.957 2.09149 198.564 1.56453C200.132 1.56453 201.699 1.91583 203.093 2.44279ZM201.525 4.02366C201.002 4.37497 200.48 4.72627 199.957 4.90193C199.261 3.84801 198.564 2.96975 197.867 1.91583C199.086 2.44279 200.306 3.1454 201.525 4.02366ZM196.648 2.09149C197.519 2.96975 198.216 4.02366 198.912 5.25323C198.216 5.42888 197.519 5.60454 196.648 5.60454V2.09149ZM196.648 6.4828C197.519 6.4828 198.564 6.30715 199.435 5.95584C200.132 7.00976 200.654 8.23932 201.177 9.46889C199.783 9.8202 198.216 9.99585 196.648 10.1715V6.4828ZM195.777 2.09149V5.60454C195.08 5.60454 194.384 5.42888 193.513 5.25323C194.384 4.19932 195.08 3.1454 195.777 2.09149ZM192.816 4.90193C192.293 4.72627 191.597 4.37497 191.248 4.02366C192.468 3.32105 193.687 2.61844 194.906 2.09149C194.035 2.96975 193.339 3.84801 192.816 4.90193ZM194.035 1.38888C192.816 1.91583 191.597 2.61844 190.378 3.32105C190.029 2.96975 189.681 2.61844 189.507 2.26714C190.9 1.91583 192.468 1.56453 194.035 1.38888ZM208.84 38.6272C206.054 37.0463 205.879 34.7629 206.054 34.0602C206.228 33.182 206.75 33.5333 207.099 33.5333C209.015 33.5333 210.931 33.0063 213.369 30.3715C216.156 27.5611 217.027 21.2376 212.672 17.1976C208.144 12.8063 203.267 13.5089 200.132 17.5489C199.435 18.4272 197.867 18.9541 196.648 18.9541C194.558 18.9541 195.951 20.535 195.951 20.8863C195.951 21.2376 195.603 21.4133 195.429 21.4133C194.732 21.2376 195.08 22.2915 195.08 22.4672C195.08 22.6428 194.732 22.9941 194.732 22.9941C193.861 22.9941 194.035 23.6967 194.209 24.0481C194.209 24.2237 194.209 24.575 193.861 24.7507C193.513 24.9263 193.339 25.6289 193.339 26.1559C193.339 27.0341 194.209 27.7368 195.603 28.7907C196.996 29.8446 197.17 30.8985 197.17 31.6011C197.17 32.3037 197.345 33.5333 197.519 34.2359C197.867 35.1142 197.867 36.8707 195.951 36.8707C193.513 37.0463 189.332 38.8029 188.984 38.9785C187.591 39.5055 185.849 39.6811 184.455 39.3298C183.759 38.8029 183.062 38.2759 182.365 37.5733C182.017 36.695 182.539 35.6411 183.062 34.9385C183.933 35.8168 184.978 35.6411 185.675 35.6411C186.371 35.6411 189.507 35.1142 190.029 34.9385C190.552 34.7629 190.726 34.7629 190.9 34.9385C192.119 35.4655 193.861 35.4655 194.558 33.182C195.254 30.7228 193.687 31.4255 193.339 31.6011C193.164 31.7768 192.816 31.6011 192.99 31.4255C193.339 30.8985 192.816 30.8985 192.642 30.8985C191.945 30.8985 191.074 31.6011 190.9 31.7768C190.552 31.9524 190.377 31.9524 190.203 31.9524C189.332 31.4255 186.72 32.1281 185.849 30.7228C185.849 30.3715 185.152 24.575 184.804 23.5211C184.804 23.3454 184.63 22.9941 184.978 22.6428C185.675 21.5889 187.416 22.6428 188.462 22.6428C189.681 22.6428 189.855 22.1159 190.203 21.7646C190.552 21.4133 190.726 21.5889 190.9 21.4133C191.074 21.2376 190.9 21.062 190.9 20.8863C190.9 20.7107 191.074 20.8863 191.248 20.7107C191.423 20.535 191.248 20.1837 191.248 20.008C191.597 19.4811 192.293 19.8324 191.945 18.7785C191.771 18.0759 192.119 17.3733 192.468 17.022C192.99 16.3193 195.255 13.1576 191.423 9.8202C187.765 6.65845 183.933 7.00976 181.494 9.64455C179.056 12.2793 180.275 16.1437 180.449 17.1976C180.623 18.2515 179.927 19.1298 179.056 19.4811C178.359 19.8324 176.792 20.8863 175.746 21.7646C175.921 13.3332 180.972 5.95584 188.636 2.96975C188.984 3.32105 189.332 3.84801 189.681 4.19932C188.81 4.90193 186.894 6.4828 186.894 6.4828C186.894 6.4828 187.068 6.4828 187.416 6.65845C187.591 6.65845 187.939 6.8341 187.939 6.8341C187.939 6.8341 189.507 5.42888 190.378 4.90193C190.9 5.42888 191.597 5.78019 192.293 6.13149C191.945 6.8341 190.9 8.59063 190.9 8.59063C190.9 8.59063 191.074 8.76628 191.248 8.76628C191.423 8.94194 191.597 8.94193 191.597 8.94193C191.597 8.94193 192.642 7.00976 192.99 6.30715C193.861 6.65845 194.732 6.8341 195.603 6.8341V10.3472C195.08 10.3472 193.861 10.3472 193.339 10.1715H192.99L193.164 10.5228C193.339 10.6985 193.339 10.8741 193.513 11.0498C193.861 11.0498 195.08 11.0498 195.603 11.0498V17.5489H196.474V15.968C197.867 15.968 198.912 15.7924 200.132 15.6167L201.351 14.5628H200.654C199.261 14.7385 198.041 14.9141 196.996 14.9141C196.996 14.9141 196.648 14.9141 196.474 14.9141V10.8741C198.041 10.8741 199.783 10.6985 201.351 10.1715C201.699 11.2254 202.57 13.8602 202.57 13.8602L203.441 13.5089C203.441 13.5089 202.57 10.8741 202.222 9.8202C203.615 9.46889 204.834 8.76628 206.054 8.23932C207.099 9.46889 207.97 10.8741 208.666 12.2793C207.97 12.6306 206.924 12.9819 206.924 12.9819C207.795 13.1576 208.492 13.3332 208.492 13.3332C208.492 13.3332 208.84 13.1576 209.015 13.1576C209.015 13.3332 209.189 13.6846 209.189 13.6846L210.408 14.2115L210.234 13.8602C210.234 13.8602 209.886 12.9819 209.711 12.8063C210.931 12.2793 212.15 11.5767 213.369 10.6985C215.633 14.0359 216.678 18.0759 216.678 22.1159C217.027 28.7907 213.717 34.7629 208.84 38.6272Z" fill="#F44920"/>
<path id="Vector_2" d="M172.785 6.13152L172.437 6.48283C171.218 7.53674 168.257 10.5228 168.779 13.8602V14.0359L168.953 14.7385L169.302 14.3872C171.044 12.8063 172.437 9.99588 172.96 6.83413L173.134 5.95587L172.785 6.13152Z" fill="#F44920"/>
<path id="Vector_3" d="M166.863 11.7524L166.689 12.1037C166.515 12.6306 166.167 13.8602 165.992 15.2654C165.644 17.3733 165.818 20.535 167.56 22.8185L167.734 23.1698L167.908 23.5211L168.257 22.1159C168.605 19.6567 168.083 14.5628 167.212 12.2793L166.863 11.5767V11.7524Z" fill="#F44920"/>
<path id="Vector_4" d="M164.773 20.535V20.8863C164.599 22.9941 164.773 28.4394 169.128 31.4255L169.65 31.7768V31.0742C169.65 28.9663 167.212 22.8185 165.47 20.7107L164.947 20.0081L164.773 20.535Z" fill="#F44920"/>
<path id="Vector_5" d="M165.47 30.1959V30.5472C166.166 33.709 168.953 38.6272 173.482 40.2081L174.179 40.3838L174.004 39.6811C173.134 37.3977 168.779 31.9524 165.992 30.1959L165.47 29.8446V30.1959Z" fill="#F44920"/>
<path id="Vector_6" d="M174.701 10.8741L174.179 11.0498C170.869 13.1576 169.302 15.6168 169.302 18.7785V19.4811L169.824 19.1298C171.566 17.5489 174.005 13.6846 174.527 11.5767L174.701 10.6985V10.8741Z" fill="#F44920"/>
<path id="Vector_7" d="M172.611 17.5489L172.437 17.9002C171.566 18.7785 168.779 21.7645 168.953 25.4532C168.953 25.9802 169.128 26.6828 169.302 27.2098L169.476 27.7367L169.824 27.2098C171.218 25.2776 172.959 20.3593 172.785 18.0758V17.3732L172.611 17.5489Z" fill="#F44920"/>
<path id="Vector_8" d="M172.785 24.048L172.611 24.3993C171.218 26.5072 170.521 28.615 170.521 30.7228C170.521 32.128 171.044 33.5333 171.914 34.9385L172.263 35.4654L172.437 34.9385C172.959 33.7089 173.482 30.0202 173.482 27.0341C173.482 25.9802 173.308 25.1019 173.134 24.575L172.96 23.8724L172.785 24.048Z" fill="#F44920"/>
<path id="Vector_9" d="M174.353 30.8985L174.179 31.2498C173.83 32.655 173.482 33.8846 173.656 35.2898C173.656 38.1002 175.05 40.3837 177.488 41.9646L177.836 42.1402L178.011 41.6133V41.0863C178.011 38.8028 176.269 32.8307 174.875 31.0741L174.527 30.5472L174.353 30.8985Z" fill="#F44920"/>
<path id="Vector_10" d="M169.65 40.0324L169.824 40.3837C171.566 43.3698 174.701 47.4098 180.449 46.3559H180.972L180.624 46.0046C179.578 44.4237 172.611 40.3837 170.173 40.0324L169.476 39.8568L169.65 40.0324Z" fill="#F44920"/>
<path id="Vector_11" d="M178.185 47.7611L177.314 47.9368L178.185 48.2881C181.843 49.869 186.371 50.2203 189.158 49.342C190.203 48.9907 190.726 48.4637 191.422 47.7611C196.125 48.2881 200.48 52.1524 203.092 55.3142L203.267 55.4898H203.441C203.789 55.3142 204.137 54.9629 204.312 54.7872L204.486 54.6116L204.312 54.4359C201.699 50.9229 197.519 48.815 197.345 48.6394C193.513 46.8829 186.894 45.4776 178.185 47.7611Z" fill="#F44920"/>
<path id="Vector_12" d="M178.359 37.9246V38.2759C178.882 41.789 180.275 46.3559 186.197 45.829H186.545L186.371 45.4777C186.023 43.8968 180.623 39.3298 178.707 38.1003L178.185 37.749L178.359 37.9246Z" fill="#F44920"/>
<path id="Vector_13" d="M219.465 5.78021L219.639 6.65848C220.162 9.82022 221.555 12.6307 223.297 14.2115L223.645 14.5628L223.82 13.8602V13.6846C224.342 10.3472 221.381 7.36109 220.162 6.30717L219.814 5.95587L219.465 5.78021Z" fill="#F44920"/>
<path id="Vector_14" d="M225.561 11.4011L225.213 12.1037C224.342 14.3872 223.994 19.4811 224.168 21.9402L224.516 23.3454L224.691 23.1698L224.865 22.8185C226.781 20.535 226.781 17.5489 226.432 15.2654C226.258 13.6845 225.91 12.6306 225.736 12.1037L225.561 11.7524V11.4011Z" fill="#F44920"/>
<path id="Vector_15" d="M227.826 20.1837L227.303 20.8863C225.562 23.1698 223.123 29.142 223.123 31.2498V31.9524L223.646 31.6011C228 28.7907 228.174 23.3455 228 21.062V20.7107L227.826 20.1837Z" fill="#F44920"/>
<path id="Vector_16" d="M227.129 29.8446L226.432 30.1959C223.646 31.9524 219.291 37.3977 218.42 39.6811L218.246 40.3838L218.943 40.2081C223.471 38.8029 226.432 33.709 226.955 30.5472V30.1959L227.129 29.8446Z" fill="#F44920"/>
<path id="Vector_17" d="M217.898 10.5228L218.072 11.4011C218.769 13.6846 220.859 17.5489 222.775 19.1298L223.297 19.4811V18.7785C223.471 15.6168 221.904 13.1576 218.594 11.0498L218.246 10.8741L217.898 10.5228Z" fill="#F44920"/>
<path id="Vector_18" d="M219.814 17.3732V18.0758C219.639 20.3593 221.555 25.4532 222.775 27.2098L223.123 27.7367L223.297 27.2098C223.471 26.5072 223.646 25.9802 223.646 25.4532C223.82 21.7645 221.033 18.7785 220.162 17.9002L219.988 17.7245L219.814 17.3732Z" fill="#F44920"/>
<path id="Vector_19" d="M219.639 23.6968L219.465 24.3994C219.291 24.9263 219.117 25.8046 219.117 26.8585C219.117 29.8446 219.465 33.5333 220.162 34.7629L220.336 35.2898L220.685 34.7629C221.555 33.5333 222.078 32.1281 222.078 30.5472C222.078 28.615 221.381 26.3316 219.988 24.2237L219.814 23.8724L219.639 23.6968Z" fill="#F44920"/>
<path id="Vector_20" d="M218.072 30.5472L217.723 31.0741C216.33 32.8307 214.588 38.8028 214.588 41.0863C214.588 41.0863 214.588 41.4376 214.588 41.6133L214.762 42.1402L215.111 41.9646C217.549 40.3837 218.769 38.1002 218.943 35.2898C218.943 34.0602 218.769 32.655 218.42 31.2498L218.246 30.8985L218.072 30.5472Z" fill="#F44920"/>
<path id="Vector_21" d="M223.123 39.6812L222.426 39.8568C219.988 40.2081 213.021 44.2481 211.976 45.829L211.627 46.1803H212.15C217.898 47.2342 221.033 43.1942 222.775 40.2081L222.949 39.8568L223.123 39.6812Z" fill="#F44920"/>
<path id="Vector_22" d="M195.429 48.6394C195.255 48.6394 191.074 50.9229 188.462 54.4359L188.287 54.6116L188.462 54.7872C188.636 54.9629 189.158 55.3142 189.332 55.4898H189.507L189.681 55.3142C192.293 52.1524 196.648 48.1124 201.351 47.7611C202.047 48.4637 202.744 48.9907 203.615 49.342C206.228 50.2203 210.931 49.869 214.588 48.2881L215.459 47.9368L214.588 47.7611C205.705 45.4776 199.086 46.8829 195.429 48.6394Z" fill="#F44920"/>
<path id="Vector_23" d="M214.24 37.5733L213.717 37.9246C211.801 39.1542 206.576 43.7211 206.053 45.302L205.879 45.6533H206.228C211.976 46.1803 213.369 41.6133 214.066 38.1003V37.749L214.24 37.5733Z" fill="#F44920"/>
<path id="Vector_24" d="M67.2329 2.44281H74.5484V9.11761H67.2329V2.44281ZM67.9296 16.8463H74.0259V49.5177H67.9296V16.8463Z" fill="#F44920"/>
<path id="Vector_25" d="M21.7723 16.8463H27.8686V49.5177H21.9465V44.7751H21.7723C19.3338 48.8151 15.1536 50.5716 10.6249 50.5716C3.83193 50.5716 0 45.302 0 38.8029V16.8463H6.09626V36.1681C6.09626 41.789 7.31551 46.0046 13.2376 46.0046C15.6761 46.0046 19.1597 44.7751 20.3789 41.262C21.5982 38.2759 21.5982 34.4116 21.5982 33.5333V16.8463H21.7723Z" fill="#F44920"/>
<path id="Vector_26" d="M40.0611 21.5889C42.3254 17.5489 46.6799 15.7924 49.9893 15.7924C52.2536 15.7924 62.1818 16.3193 62.1818 26.8585V49.342H56.0855V28.7906C56.0855 23.3454 53.8212 20.535 48.5959 20.535C48.5959 20.535 45.2865 20.3593 42.6738 22.9941C41.8029 23.8724 40.0611 25.2776 40.0611 31.7767V49.5176H33.9648V16.8463H40.0611V21.5889Z" fill="#F44920"/>
<path id="Vector_27" d="M99.6302 27.2098C99.2818 23.1698 97.3659 20.3593 93.0114 20.3593C87.2635 20.3593 84.9992 25.4532 84.9992 33.0063C84.9992 40.5594 87.2635 45.6533 93.0114 45.6533C97.0175 45.6533 99.456 43.0185 99.8044 38.2759H105.901C105.378 45.6533 99.9785 50.0446 92.8372 50.0446C82.5607 50.0446 78.3804 42.6672 78.3804 33.182C78.3804 23.6967 83.0832 15.7924 93.3597 15.7924C100.153 15.7924 105.204 20.1837 105.552 27.2098H99.6302Z" fill="#F44920"/>
<path id="Vector_28" d="M114.958 34.2359C114.436 39.8568 116.874 45.8289 122.97 45.8289C127.673 45.8289 130.112 43.8968 130.808 39.1542H137.253C136.208 46.5316 130.634 50.2203 122.97 50.2203C112.694 50.2203 108.513 42.8429 108.513 33.3576C108.513 23.8724 113.216 15.968 123.493 15.968C133.073 16.1437 137.601 22.2915 137.601 31.2498V34.2359H114.958ZM131.331 30.0202C131.505 24.575 129.067 20.3593 123.144 20.3593C118.093 20.3593 115.132 24.7506 115.132 30.0202H131.331Z" fill="#F44920"/>
<path id="Vector_29" d="M144.568 49.1664V21.062H138.995V16.8463H144.568V9.82022C144.743 2.79412 150.142 0.861938 154.671 0.861938C156.064 0.861938 157.632 1.21324 159.025 1.56455V6.65847C157.98 6.65847 156.935 6.48282 155.89 6.48282C152.406 6.48282 150.49 7.36108 150.665 10.8741V16.8463H158.154V21.062H150.665V49.1664H144.568Z" fill="#F44920"/>
</g>
<defs>
<clipPath id="clip0_320_474">
<rect width="228" height="55.3305" fill="white" transform="translate(0 0.334961)"/>
</clipPath>
</defs>
</svg>
